<svg width="18" height="18" viewBox="0 0 18 18" fill="none" xmlns="http://www.w3.org/2000/svg">
<path d="M2.86311 4.11413C3.67895 4.11413 4.33992 3.45259 4.33992 2.63728C4.33992 1.82113 3.67895 1.16016 2.86311 1.16016C2.04692 1.16016 1.38599 1.82113 1.38599 2.63728C1.38599 3.45259 2.04692 4.11413 2.86311 4.11413Z" fill="#3A3C47"/>
<path d="M7.88084 8.61514C7.88084 8.58505 7.87584 8.55632 7.87201 8.52732L10.078 6.92627C10.2166 6.82548 10.2478 6.63057 10.147 6.49167C10.0885 6.41134 9.99436 6.36328 9.89494 6.36328C9.82895 6.36328 9.76602 6.38398 9.71244 6.42266L7.50203 8.02705C7.41973 7.9895 7.32944 7.96714 7.23308 7.96714H6.03151L5.73992 6.30699C5.57979 5.46989 5.2438 4.8125 4.52816 4.8125H1.49418C0.77857 4.8125 0 5.59107 0 6.30699V11.2712C0 11.629 0.289898 11.9192 0.647719 11.9192C0.823887 11.9192 0.647719 11.9192 1.09997 11.9192L1.34624 16.1528C1.34624 16.5336 1.65519 16.8422 2.03593 16.8422C2.3214 16.8422 3.0343 16.8422 3.41504 16.8422C3.79578 16.8422 4.10446 16.5336 4.10446 16.1528L4.42803 7.767H4.44431L4.62959 8.58505C4.6909 8.97518 5.02661 9.26286 5.42144 9.26286H7.23319C7.59094 9.26286 7.88084 8.97296 7.88084 8.61514ZM2.39154 7.69489V5.3351H3.23972V7.69489L2.78912 8.22638L2.39154 7.69489Z" fill="#3A3C47"/>
<path d="M6.69116 1.67188V7.06481H7.53934V2.52002H17.1518V10.6248H7.53934V9.60464H6.69116V11.4729H18V1.67188H6.69116Z" fill="#3A3C47"/>
<path d="M10.9621 13.6651C10.9621 13.0041 10.4265 12.4688 9.76579 12.4688C9.10482 12.4688 8.56921 13.0041 8.56921 13.6651C8.56921 14.3255 9.10482 14.8614 9.76579 14.8614C10.4264 14.8614 10.9621 14.3255 10.9621 13.6651Z" fill="#3A3C47"/>
<path d="M9.76577 15.5C8.91292 15.5 8.18845 16.0597 7.91016 16.8429H11.6214C11.3431 16.0596 10.6186 15.5 9.76577 15.5Z" fill="#3A3C47"/>
<path d="M16.1218 13.6651C16.1218 13.0041 15.5862 12.4688 14.9255 12.4688C14.2645 12.4688 13.7289 13.0041 13.7289 13.6651C13.7289 14.3255 14.2645 14.8614 14.9255 14.8614C15.5862 14.8614 16.1218 14.3255 16.1218 13.6651Z" fill="#3A3C47"/>
<path d="M14.9254 15.5C14.0725 15.5 13.348 16.0597 13.0697 16.8429H16.781C16.5027 16.0596 15.7782 15.5 14.9254 15.5Z" fill="#3A3C47"/>
</svg>
