<svg width="18" height="18" viewBox="0 0 18 18" fill="none" xmlns="http://www.w3.org/2000/svg">
<g clip-path="url(#clip0_160_2017)">
<path d="M8.99986 11.6516C10.0373 11.6516 10.8784 10.8105 10.8784 9.77305C10.8784 8.73557 10.0373 7.89453 8.99986 7.89453C7.96238 7.89453 7.12134 8.73557 7.12134 9.77305C7.12134 10.8105 7.96238 11.6516 8.99986 11.6516Z" fill="#3A3C47"/>
<path d="M9.79668 11.7773H8.20275C6.87664 11.7773 5.79773 12.8566 5.79773 14.1825V16.1324L5.80265 16.1627L5.93674 16.2045C7.20229 16.6 8.302 16.7321 9.20723 16.7321C10.9746 16.7321 11.999 16.2278 12.0623 16.1961L12.1878 16.132L12.2008 16.1324V14.1824C12.2017 12.8566 11.1232 11.7773 9.79668 11.7773Z" fill="#3A3C47"/>
<path d="M5.16505 7.33034C6.8387 7.33034 8.19545 5.97358 8.19545 4.29994C8.19545 2.62629 6.8387 1.26953 5.16505 1.26953C3.4914 1.26953 2.13464 2.62629 2.13464 4.29994C2.13464 5.97358 3.4914 7.33034 5.16505 7.33034Z" fill="#3A3C47"/>
<path d="M12.8342 7.33034C14.5078 7.33034 15.8642 5.97304 15.8642 4.29957C15.8642 2.62666 14.5073 1.26953 12.8342 1.26953C11.1602 1.26953 9.80396 2.62629 9.80396 4.29957C9.80396 5.97285 11.1602 7.33034 12.8342 7.33034Z" fill="#3A3C47"/>
<path d="M7.52685 11.4816C7.04577 11.0667 6.73983 10.4541 6.73983 9.7707C6.73983 8.9326 7.19938 8.20104 7.87876 7.81081C7.43636 7.63476 6.95547 7.53516 6.45104 7.53516H3.87963C1.74042 7.53497 0 9.27612 0 11.415V14.5603L0.00784465 14.6094L0.224393 14.6767C2.22788 15.3028 3.97195 15.5183 5.41609 15.5261V14.1821C5.41609 12.8788 6.3164 11.7849 7.52685 11.4816Z" fill="#3A3C47"/>
<path d="M14.12 7.53516H11.5489C11.0445 7.53516 10.5642 7.63476 10.1216 7.81081C10.8015 8.20104 11.2611 8.93223 11.2611 9.7707C11.2611 10.4537 10.9549 11.0663 10.4742 11.4812C10.9588 11.6018 11.4048 11.8497 11.7673 12.2124C12.2942 12.7396 12.5844 13.4394 12.5843 14.1827V15.5263C14.0284 15.5185 15.7726 15.3028 17.7758 14.6769L17.9923 14.6096L18.0003 14.5605V11.4152C17.9996 9.2763 16.2592 7.53516 14.12 7.53516Z" fill="#3A3C47"/>
</g>
<defs>
<clipPath id="clip0_160_2017">
<rect width="18" height="18" fill="white"/>
</clipPath>
</defs>
</svg>
