<svg width="18" height="18" viewBox="0 0 18 18" fill="none" xmlns="http://www.w3.org/2000/svg">
<g clip-path="url(#clip0_160_1951)">
<path d="M17.7833 6.34173L9.81791 2.67514C9.55955 2.55614 9.28434 2.49609 9 2.49609C8.71566 2.49609 8.44052 2.55614 8.18209 2.67514L0.216668 6.34173C0.0850078 6.40259 0 6.53523 0 6.68018C0 6.82513 0.0850078 6.95777 0.216668 7.01863L8.18209 10.6852C8.44045 10.8042 8.71566 10.8645 9 10.8645C9.28434 10.8645 9.55955 10.8042 9.81798 10.6852L16.1043 7.79164V10.7054C15.8549 10.7336 15.6603 10.9459 15.6603 11.2025C15.6603 11.426 15.8083 11.6196 16.0191 11.6812L15.594 14.4864H17.5514L17.1263 11.6812C17.3371 11.6196 17.4851 11.426 17.4851 11.2025C17.4851 10.9459 17.2905 10.7336 17.041 10.7054V7.36038L17.7834 7.01863C17.915 6.95777 18.0001 6.82513 18.0001 6.68018C18.0001 6.53523 17.915 6.40259 17.7833 6.34173Z" fill="#3A3C47"/>
<path d="M8.99995 12.1918C8.60459 12.1918 8.22149 12.1077 7.86138 11.942L3.96533 10.1484V13.7216C3.96533 14.5061 6.33578 15.5013 8.99995 15.5013C11.6642 15.5013 14.0346 14.5061 14.0346 13.7216V10.1484L10.1384 11.942C9.77849 12.1077 9.39546 12.1918 8.99995 12.1918Z" fill="#3A3C47"/>
</g>
<defs>
<clipPath id="clip0_160_1951">
<rect width="18" height="18" fill="white"/>
</clipPath>
</defs>
</svg>
