<svg width="20" height="20" viewBox="0 0 20 20" fill="none" xmlns="http://www.w3.org/2000/svg">
<path fill-rule="evenodd" clip-rule="evenodd" d="M0.625 12.375C0.79076 12.375 0.949732 12.4408 1.06694 12.5581C1.18415 12.6753 1.25 12.8342 1.25 13V16.125C1.25 16.4565 1.3817 16.7745 1.61612 17.0089C1.85054 17.2433 2.16848 17.375 2.5 17.375H17.5C17.8315 17.375 18.1495 17.2433 18.3839 17.0089C18.6183 16.7745 18.75 16.4565 18.75 16.125V13C18.75 12.8342 18.8158 12.6753 18.9331 12.5581C19.0503 12.4408 19.2092 12.375 19.375 12.375C19.5408 12.375 19.6997 12.4408 19.8169 12.5581C19.9342 12.6753 20 12.8342 20 13V16.125C20 16.788 19.7366 17.4239 19.2678 17.8928C18.7989 18.3616 18.163 18.625 17.5 18.625H2.5C1.83696 18.625 1.20107 18.3616 0.732233 17.8928C0.263392 17.4239 0 16.788 0 16.125V13C0 12.8342 0.065848 12.6753 0.183058 12.5581C0.300269 12.4408 0.45924 12.375 0.625 12.375Z" fill="#281B93"/>
<path fill-rule="evenodd" clip-rule="evenodd" d="M9.55826 1.43264C9.61632 1.37444 9.68529 1.32826 9.76122 1.29675C9.83715 1.26524 9.91855 1.24902 10.0008 1.24902C10.083 1.24902 10.1644 1.26524 10.2403 1.29675C10.3162 1.32826 10.3852 1.37444 10.4433 1.43264L14.1933 5.18264C14.3106 5.3 14.3765 5.45917 14.3765 5.62514C14.3765 5.79111 14.3106 5.95028 14.1933 6.06764C14.0759 6.185 13.9167 6.25093 13.7508 6.25093C13.5848 6.25093 13.4256 6.185 13.3083 6.06764L10.6258 3.38389V14.3751C10.6258 14.5409 10.5599 14.6999 10.4427 14.8171C10.3255 14.9343 10.1665 15.0001 10.0008 15.0001C9.835 15.0001 9.67603 14.9343 9.55882 14.8171C9.44161 14.6999 9.37576 14.5409 9.37576 14.3751V3.38389L6.69326 6.06764C6.63515 6.12575 6.56616 6.17185 6.49024 6.2033C6.41431 6.23474 6.33294 6.25093 6.25076 6.25093C6.16858 6.25093 6.0872 6.23474 6.01128 6.2033C5.93536 6.17185 5.86637 6.12575 5.80826 6.06764C5.75015 6.00953 5.70405 5.94055 5.6726 5.86462C5.64116 5.7887 5.62497 5.70732 5.62497 5.62514C5.62497 5.54296 5.64116 5.46159 5.6726 5.38566C5.70405 5.30974 5.75015 5.24075 5.80826 5.18264L9.55826 1.43264Z" fill="#281B93"/>
</svg>
