<svg width="28" height="28" viewBox="0 0 28 28" fill="none" xmlns="http://www.w3.org/2000/svg">
<g clip-path="url(#clip0_839_7043)">
<path fill-rule="evenodd" clip-rule="evenodd" d="M24.5 0H3.5C2.57174 0 1.6815 0.368749 1.02513 1.02513C0.368749 1.6815 0 2.57174 0 3.5L0 24.5C0 25.4283 0.368749 26.3185 1.02513 26.9749C1.6815 27.6313 2.57174 28 3.5 28H24.5C25.4283 28 26.3185 27.6313 26.9749 26.9749C27.6313 26.3185 28 25.4283 28 24.5V3.5C28 2.57174 27.6313 1.6815 26.9749 1.02513C26.3185 0.368749 25.4283 0 24.5 0V0ZM1.75 6.74975C1.75 5.922 2.534 5.25 3.5 5.25H24.5C25.466 5.25 26.25 5.922 26.25 6.74975V24.7502C26.25 25.578 25.466 26.25 24.5 26.25H3.5C2.534 26.25 1.75 25.578 1.75 24.7502V6.74975Z" fill="white"/>
<path fill-rule="evenodd" clip-rule="evenodd" d="M11.375 12.25C11.8391 12.25 12.2842 12.0656 12.6124 11.7374C12.9406 11.4092 13.125 10.9641 13.125 10.5C13.125 10.0359 12.9406 9.59075 12.6124 9.26256C12.2842 8.93437 11.8391 8.75 11.375 8.75C10.9109 8.75 10.4658 8.93437 10.1376 9.26256C9.80937 9.59075 9.625 10.0359 9.625 10.5C9.625 10.9641 9.80937 11.4092 10.1376 11.7374C10.4658 12.0656 10.9109 12.25 11.375 12.25ZM16.625 12.25C17.0891 12.25 17.5342 12.0656 17.8624 11.7374C18.1906 11.4092 18.375 10.9641 18.375 10.5C18.375 10.0359 18.1906 9.59075 17.8624 9.26256C17.5342 8.93437 17.0891 8.75 16.625 8.75C16.1609 8.75 15.7158 8.93437 15.3876 9.26256C15.0594 9.59075 14.875 10.0359 14.875 10.5C14.875 10.9641 15.0594 11.4092 15.3876 11.7374C15.7158 12.0656 16.1609 12.25 16.625 12.25V12.25ZM21.875 12.25C22.3391 12.25 22.7842 12.0656 23.1124 11.7374C23.4406 11.4092 23.625 10.9641 23.625 10.5C23.625 10.0359 23.4406 9.59075 23.1124 9.26256C22.7842 8.93437 22.3391 8.75 21.875 8.75C21.4109 8.75 20.9658 8.93437 20.6376 9.26256C20.3094 9.59075 20.125 10.0359 20.125 10.5C20.125 10.9641 20.3094 11.4092 20.6376 11.7374C20.9658 12.0656 21.4109 12.25 21.875 12.25V12.25ZM6.125 17.5C6.58913 17.5 7.03425 17.3156 7.36244 16.9874C7.69063 16.6592 7.875 16.2141 7.875 15.75C7.875 15.2859 7.69063 14.8408 7.36244 14.5126C7.03425 14.1844 6.58913 14 6.125 14C5.66087 14 5.21575 14.1844 4.88756 14.5126C4.55937 14.8408 4.375 15.2859 4.375 15.75C4.375 16.2141 4.55937 16.6592 4.88756 16.9874C5.21575 17.3156 5.66087 17.5 6.125 17.5V17.5ZM11.375 17.5C11.8391 17.5 12.2842 17.3156 12.6124 16.9874C12.9406 16.6592 13.125 16.2141 13.125 15.75C13.125 15.2859 12.9406 14.8408 12.6124 14.5126C12.2842 14.1844 11.8391 14 11.375 14C10.9109 14 10.4658 14.1844 10.1376 14.5126C9.80937 14.8408 9.625 15.2859 9.625 15.75C9.625 16.2141 9.80937 16.6592 10.1376 16.9874C10.4658 17.3156 10.9109 17.5 11.375 17.5ZM16.625 17.5C17.0891 17.5 17.5342 17.3156 17.8624 16.9874C18.1906 16.6592 18.375 16.2141 18.375 15.75C18.375 15.2859 18.1906 14.8408 17.8624 14.5126C17.5342 14.1844 17.0891 14 16.625 14C16.1609 14 15.7158 14.1844 15.3876 14.5126C15.0594 14.8408 14.875 15.2859 14.875 15.75C14.875 16.2141 15.0594 16.6592 15.3876 16.9874C15.7158 17.3156 16.1609 17.5 16.625 17.5V17.5ZM21.875 17.5C22.3391 17.5 22.7842 17.3156 23.1124 16.9874C23.4406 16.6592 23.625 16.2141 23.625 15.75C23.625 15.2859 23.4406 14.8408 23.1124 14.5126C22.7842 14.1844 22.3391 14 21.875 14C21.4109 14 20.9658 14.1844 20.6376 14.5126C20.3094 14.8408 20.125 15.2859 20.125 15.75C20.125 16.2141 20.3094 16.6592 20.6376 16.9874C20.9658 17.3156 21.4109 17.5 21.875 17.5V17.5ZM6.125 22.75C6.58913 22.75 7.03425 22.5656 7.36244 22.2374C7.69063 21.9092 7.875 21.4641 7.875 21C7.875 20.5359 7.69063 20.0908 7.36244 19.7626C7.03425 19.4344 6.58913 19.25 6.125 19.25C5.66087 19.25 5.21575 19.4344 4.88756 19.7626C4.55937 20.0908 4.375 20.5359 4.375 21C4.375 21.4641 4.55937 21.9092 4.88756 22.2374C5.21575 22.5656 5.66087 22.75 6.125 22.75V22.75ZM11.375 22.75C11.8391 22.75 12.2842 22.5656 12.6124 22.2374C12.9406 21.9092 13.125 21.4641 13.125 21C13.125 20.5359 12.9406 20.0908 12.6124 19.7626C12.2842 19.4344 11.8391 19.25 11.375 19.25C10.9109 19.25 10.4658 19.4344 10.1376 19.7626C9.80937 20.0908 9.625 20.5359 9.625 21C9.625 21.4641 9.80937 21.9092 10.1376 22.2374C10.4658 22.5656 10.9109 22.75 11.375 22.75ZM16.625 22.75C17.0891 22.75 17.5342 22.5656 17.8624 22.2374C18.1906 21.9092 18.375 21.4641 18.375 21C18.375 20.5359 18.1906 20.0908 17.8624 19.7626C17.5342 19.4344 17.0891 19.25 16.625 19.25C16.1609 19.25 15.7158 19.4344 15.3876 19.7626C15.0594 20.0908 14.875 20.5359 14.875 21C14.875 21.4641 15.0594 21.9092 15.3876 22.2374C15.7158 22.5656 16.1609 22.75 16.625 22.75V22.75Z" fill="white"/>
</g>
<defs>
<clipPath id="clip0_839_7043">
<rect width="28" height="28" fill="white"/>
</clipPath>
</defs>
</svg>
