<svg width="16" height="16" viewBox="0 0 16 16" fill="none" xmlns="http://www.w3.org/2000/svg">
<path d="M4.7156 6.542L3.3436 7.914C2.78094 8.47666 2.46484 9.23978 2.46484 10.0355C2.46484 10.8312 2.78094 11.5943 3.3436 12.157C3.90625 12.7197 4.66938 13.0358 5.4651 13.0358C6.26081 13.0358 7.02394 12.7197 7.5866 12.157L9.4146 10.328C9.75389 9.98866 10.0068 9.57287 10.1522 9.11555C10.2975 8.65822 10.3311 8.1727 10.25 7.69974C10.1688 7.22677 9.97546 6.78016 9.68603 6.3974C9.3966 6.01464 9.01957 5.7069 8.5866 5.5L8.0006 6.086C7.9411 6.14559 7.88936 6.21245 7.8466 6.285C8.18113 6.38117 8.48476 6.56298 8.72749 6.81246C8.97022 7.06194 9.14364 7.37044 9.2306 7.70748C9.31756 8.04452 9.31506 8.39842 9.22333 8.73419C9.13161 9.06996 8.95384 9.37598 8.7076 9.622L6.8806 11.45C6.50532 11.8253 5.99633 12.0361 5.4656 12.0361C4.93487 12.0361 4.42588 11.8253 4.0506 11.45C3.67532 11.0747 3.46449 10.5657 3.46449 10.035C3.46449 9.50427 3.67532 8.99528 4.0506 8.62L4.8436 7.828C4.73171 7.40873 4.68849 6.9741 4.7156 6.541V6.542Z" fill="white"/>
<path d="M6.58556 4.6716C6.24627 5.01094 5.99332 5.42672 5.84797 5.88405C5.70261 6.34138 5.66909 6.8269 5.7502 7.29986C5.83131 7.77283 6.0247 8.21943 6.31413 8.60219C6.60356 8.98495 6.98058 9.2927 7.41356 9.4996L8.18856 8.7236C7.84951 8.63265 7.54036 8.45407 7.29219 8.2058C7.04403 7.95753 6.86557 7.64831 6.77477 7.30922C6.68397 6.97013 6.68401 6.61311 6.7749 6.27404C6.86579 5.93498 7.04433 5.62581 7.29256 5.3776L9.11956 3.5496C9.49484 3.17432 10.0038 2.96349 10.5346 2.96349C11.0653 2.96349 11.5743 3.17432 11.9496 3.5496C12.3248 3.92488 12.5357 4.43387 12.5357 4.9646C12.5357 5.49533 12.3248 6.00432 11.9496 6.3796L11.1566 7.1716C11.2686 7.5916 11.3116 8.0266 11.2846 8.4586L12.6566 7.0866C13.2192 6.52394 13.5353 5.76081 13.5353 4.9651C13.5353 4.16938 13.2192 3.40625 12.6566 2.8436C12.0939 2.28094 11.3308 1.96484 10.5351 1.96484C9.73934 1.96484 8.97622 2.28094 8.41356 2.8436L6.58556 4.6716Z" fill="white"/>
</svg>
