<svg width="32" height="32" viewBox="0 0 32 32" fill="none" xmlns="http://www.w3.org/2000/svg">
<path d="M7.094 14.8281H4.2815C3.894 14.8281 3.5785 15.1436 3.5785 15.5311V17.4061C3.5785 17.7936 3.894 18.1091 4.2815 18.1091H7.094C7.4815 18.1091 7.797 17.7936 7.797 17.4061V15.5311C7.797 15.1436 7.4815 14.8281 7.094 14.8281ZM5.453 17.6406H4.2815C4.21935 17.6405 4.15978 17.6157 4.11583 17.5718C4.07188 17.5278 4.04713 17.4683 4.047 17.4061V15.5311C4.04713 15.469 4.07188 15.4094 4.11583 15.3655C4.15978 15.3215 4.21935 15.2968 4.2815 15.2966H5.4535L5.453 17.6406ZM7.328 17.4066C7.32787 17.4688 7.30312 17.5283 7.25917 17.5723C7.21522 17.6162 7.15565 17.641 7.0935 17.6411H5.9215V15.2971H7.0935C7.15565 15.2973 7.21522 15.322 7.25917 15.366C7.30312 15.4099 7.32787 15.4695 7.328 15.5316V17.4066Z" fill="#7aaa23"/>
<path d="M7.094 19.75H4.2815C3.894 19.75 3.5785 20.0655 3.5785 20.453V22.328C3.5785 22.7155 3.894 23.031 4.2815 23.031H7.094C7.4815 23.031 7.797 22.7155 7.797 22.328V20.453C7.797 20.0655 7.4815 19.75 7.094 19.75ZM5.453 22.5625H4.2815C4.21935 22.5624 4.15978 22.5376 4.11583 22.4937C4.07188 22.4497 4.04713 22.3902 4.047 22.328V20.453C4.04713 20.3908 4.07188 20.3313 4.11583 20.2873C4.15978 20.2434 4.21935 20.2186 4.2815 20.2185H5.4535L5.453 22.5625ZM7.328 22.328C7.32787 22.3902 7.30312 22.4497 7.25917 22.4937C7.21522 22.5376 7.15565 22.5624 7.0935 22.5625H5.9215V20.2185H7.0935C7.15565 20.2186 7.21522 20.2434 7.25917 20.2873C7.30312 20.3313 7.32787 20.3908 7.328 20.453V22.328Z" fill="#7aaa23"/>
<path d="M7.094 24.4375H4.2815C3.894 24.4375 3.5785 24.753 3.5785 25.1405V27.0155C3.5785 27.403 3.894 27.7185 4.2815 27.7185H7.094C7.4815 27.7185 7.797 27.403 7.797 27.0155V25.1405C7.797 24.753 7.4815 24.4375 7.094 24.4375ZM5.453 27.25H4.2815C4.21935 27.2499 4.15978 27.2251 4.11583 27.1812C4.07188 27.1372 4.04713 27.0777 4.047 27.0155V25.1405C4.04713 25.0783 4.07188 25.0188 4.11583 24.9748C4.15978 24.9309 4.21935 24.9061 4.2815 24.906H5.4535L5.453 27.25ZM7.328 27.0155C7.32787 27.0777 7.30312 27.1372 7.25917 27.1812C7.21522 27.2251 7.15565 27.2499 7.0935 27.25H5.9215V24.906H7.0935C7.15565 24.9061 7.21522 24.9309 7.25917 24.9748C7.30312 25.0188 7.32787 25.0783 7.328 25.1405V27.0155Z" fill="#7aaa23"/>
<path d="M24.203 15.5311V17.4061C24.203 17.7936 24.5185 18.1091 24.906 18.1091H27.7185C28.106 18.1091 28.4215 17.7936 28.4215 17.4061V15.5311C28.4215 15.1436 28.106 14.8281 27.7185 14.8281H24.906C24.7196 14.8283 24.5409 14.9024 24.409 15.0342C24.2772 15.166 24.2031 15.3447 24.203 15.5311ZM26.547 15.2966H27.719C27.7812 15.2968 27.8407 15.3215 27.8847 15.3655C27.9286 15.4094 27.9534 15.469 27.9535 15.5311V17.4061C27.9534 17.4683 27.9286 17.5278 27.8847 17.5718C27.8407 17.6157 27.7812 17.6405 27.719 17.6406H26.547V15.2966ZM26.078 17.6401H24.906C24.8438 17.64 24.7843 17.6152 24.7403 17.5713C24.6964 17.5273 24.6716 17.4678 24.6715 17.4056V15.5306C24.6716 15.4685 24.6964 15.4089 24.7403 15.365C24.7843 15.321 24.8438 15.2963 24.906 15.2961H26.078V17.6401Z" fill="#7aaa23"/>
<path d="M27.719 19.75H24.9065C24.519 19.75 24.2035 20.0655 24.2035 20.453V22.328C24.2035 22.7155 24.519 23.031 24.9065 23.031H27.719C28.1065 23.031 28.422 22.7155 28.422 22.328V20.453C28.422 20.0655 28.1065 19.75 27.719 19.75ZM26.078 22.5625H24.906C24.8438 22.5624 24.7843 22.5376 24.7403 22.4937C24.6964 22.4497 24.6716 22.3902 24.6715 22.328V20.453C24.6716 20.3908 24.6964 20.3313 24.7403 20.2873C24.7843 20.2434 24.8438 20.2186 24.906 20.2185H26.078V22.5625ZM27.953 22.328C27.9529 22.3902 27.9281 22.4497 27.8842 22.4937C27.8402 22.5376 27.7807 22.5624 27.7185 22.5625H26.5465V20.2185H27.7185C27.7807 20.2186 27.8402 20.2434 27.8842 20.2873C27.9281 20.3313 27.9529 20.3908 27.953 20.453V22.328Z" fill="#7aaa23"/>
<path d="M27.719 24.4375H24.9065C24.519 24.4375 24.2035 24.753 24.2035 25.1405V27.0155C24.2035 27.403 24.519 27.7185 24.9065 27.7185H27.719C28.1065 27.7185 28.422 27.403 28.422 27.0155V25.1405C28.422 24.753 28.1065 24.4375 27.719 24.4375ZM26.078 27.25H24.906C24.8438 27.2499 24.7843 27.2251 24.7403 27.1812C24.6964 27.1372 24.6716 27.0777 24.6715 27.0155V25.1405C24.6716 25.0783 24.6964 25.0188 24.7403 24.9748C24.7843 24.9309 24.8438 24.9061 24.906 24.906H26.078V27.25ZM27.953 27.0155C27.9529 27.0777 27.9281 27.1372 27.8842 27.1812C27.8402 27.2251 27.7807 27.2499 27.7185 27.25H26.5465V24.906H27.7185C27.7807 24.9061 27.8402 24.9309 27.8842 24.9748C27.9281 25.0188 27.9529 25.0783 27.953 25.1405V27.0155Z" fill="#7aaa23"/>
<path d="M11.2495 18.1745C10.986 18.0855 10.8695 18.0345 10.8695 17.9185C10.8695 17.8245 10.9665 17.7435 11.168 17.7435C11.3675 17.7435 11.5135 17.7945 11.595 17.8295L11.6985 17.498C11.532 17.4343 11.3548 17.4032 11.1765 17.4065C10.693 17.4065 10.402 17.644 10.402 17.9535C10.402 18.217 10.6235 18.3845 10.964 18.4895C11.2095 18.567 11.307 18.6325 11.307 18.7455C11.307 18.864 11.1945 18.942 10.982 18.942C10.785 18.942 10.594 18.886 10.4695 18.829L10.3755 19.1685C10.4905 19.225 10.7215 19.279 10.9555 19.279C11.517 19.279 11.781 19.0205 11.781 18.716C11.781 18.46 11.611 18.293 11.2495 18.1745Z" fill="#7aaa23"/>
<path d="M13.138 17.7458C13.3015 17.7458 13.4325 17.7772 13.526 17.8127L13.62 17.4872C13.5385 17.4492 13.3565 17.4062 13.1165 17.4062C12.497 17.4062 11.9985 17.7508 11.9985 18.3708C11.9985 18.8883 12.363 19.2782 13.071 19.2782C13.32 19.2782 13.5115 19.2383 13.5965 19.2003L13.526 18.8797C13.4012 18.9189 13.2713 18.939 13.1405 18.9393C12.728 18.9393 12.485 18.7098 12.485 18.3463C12.4855 17.9423 12.771 17.7458 13.138 17.7458Z" fill="#7aaa23"/>
<path d="M15.127 18.1335H14.3645V17.4355H13.9005V19.251H14.3645V18.491H15.127V19.251H15.5885V17.4355H15.127V18.1335Z" fill="#7aaa23"/>
<path d="M16.894 17.4062C16.29 17.4062 15.8985 17.8128 15.8985 18.3568C15.8985 18.8743 16.2535 19.2812 16.8605 19.2812C17.459 19.2812 17.8655 18.9198 17.8655 18.3253C17.865 17.8233 17.5225 17.4062 16.894 17.4062ZM16.8855 18.9552C16.5755 18.9552 16.3875 18.7043 16.3875 18.3488C16.3875 17.9958 16.5695 17.7318 16.882 17.7318C17.201 17.7318 17.377 18.0122 17.377 18.3382C17.377 18.6912 17.1975 18.9552 16.8855 18.9552Z" fill="#7aaa23"/>
<path d="M19.072 17.4062C18.4675 17.4062 18.076 17.8128 18.076 18.3568C18.076 18.8743 18.431 19.2812 19.038 19.2812C19.637 19.2812 20.0435 18.9198 20.0435 18.3253C20.043 17.8233 19.6995 17.4062 19.072 17.4062ZM19.0625 18.9552C18.7525 18.9552 18.5645 18.7043 18.5645 18.3488C18.5645 17.9958 18.7465 17.7318 19.059 17.7318C19.3785 17.7318 19.554 18.0122 19.554 18.3382C19.554 18.6912 19.375 18.9552 19.0625 18.9552Z" fill="#7aaa23"/>
<path d="M20.811 17.4355H20.3465V19.251H21.625V18.906H20.811V17.4355Z" fill="#7aaa23"/>
<path d="M19.2815 13.1877C19.2815 12.7568 19.1966 12.3301 19.0317 11.932C18.8668 11.5338 18.6251 11.1721 18.3204 10.8674C18.0157 10.5627 17.6539 10.321 17.2558 10.156C16.8576 9.99113 16.4309 9.90625 16 9.90625C15.5691 9.90625 15.1424 9.99113 14.7442 10.156C14.3461 10.321 13.9843 10.5627 13.6796 10.8674C13.3749 11.1721 13.1332 11.5338 12.9683 11.932C12.8034 12.3301 12.7185 12.7568 12.7185 13.1877C12.7185 13.6187 12.8034 14.0454 12.9683 14.4435C13.1332 14.8417 13.3749 15.2034 13.6796 15.5081C13.9843 15.8128 14.3461 16.0546 14.7442 16.2195C15.1424 16.3844 15.5691 16.4692 16 16.4692C16.4309 16.4692 16.8576 16.3844 17.2558 16.2195C17.6539 16.0546 18.0157 15.8128 18.3204 15.5081C18.6251 15.2034 18.8668 14.8417 19.0317 14.4435C19.1966 14.0454 19.2815 13.6187 19.2815 13.1877ZM13.6565 13.1877C13.6566 12.8799 13.7173 12.575 13.8352 12.2906C13.953 12.0062 14.1258 11.7477 14.3435 11.5301C14.5613 11.3124 14.8198 11.1398 15.1043 11.022C15.3887 10.9043 15.6936 10.8437 16.0015 10.8438C16.3094 10.8438 16.6142 10.9045 16.8987 11.0224C17.1831 11.1403 17.4415 11.313 17.6592 11.5308C17.8768 11.7485 18.0495 12.007 18.1672 12.2915C18.285 12.576 18.3456 12.8809 18.3455 13.1888C18.3454 13.8106 18.0982 14.4068 17.6585 14.8464C17.2187 15.286 16.6223 15.5329 16.0005 15.5328C15.3787 15.5326 14.7824 15.2855 14.3428 14.8457C13.9032 14.4059 13.6564 13.8095 13.6565 13.1877Z" fill="#7aaa23"/>
<path d="M16.469 13.6565V11.7815C16.469 11.5235 16.258 11.3125 16 11.3125C15.742 11.3125 15.531 11.5235 15.531 11.7815V13.188H15.062C14.804 13.188 14.593 13.399 14.593 13.657C14.593 13.915 14.804 14.126 15.062 14.126H16C16.1243 14.1253 16.2433 14.0757 16.3311 13.9877C16.4189 13.8998 16.4685 13.7808 16.469 13.6565Z" fill="#7aaa23"/>
<path d="M30.5315 29.125H30.0625V14.125H30.3795C30.907 14.125 31.1445 13.7475 30.909 13.2865L29.3705 10.276C29.1345 9.815 28.51 9.4375 27.983 9.4375H20.0535L16.4685 6.5355V5.3905C18.3435 6.8865 20.2185 2.1675 22.0935 3.664C20.2185 1.017 18.3435 4.5845 16.4685 1.9375V1.469C16.469 1.211 16.258 1 16 1C15.742 1 15.531 1.211 15.531 1.469V6.536L11.946 9.438H4.0175C3.49 9.438 2.8655 9.8155 2.63 10.2765L1.0915 13.287C0.8555 13.748 1.0935 14.1255 1.621 14.1255H1.938V29.1255H1.469C1.34478 29.1258 1.22572 29.1752 1.13783 29.263C1.04995 29.3508 1.0004 29.4698 1 29.594V30.5315C1.0004 30.6557 1.04995 30.7747 1.13783 30.8625C1.22572 30.9503 1.34478 30.9997 1.469 31H30.5315C30.6556 30.9996 30.7746 30.9501 30.8623 30.8623C30.9501 30.7746 30.9996 30.6556 31 30.5315V29.594C30.9997 29.4698 30.9503 29.3507 30.8625 29.2628C30.7747 29.175 30.6557 29.1254 30.5315 29.125ZM8.5 29.125H2.875V14.125H7.3435C7.3525 14.2065 7.3685 14.284 7.3935 14.3545C7.516 14.697 7.872 15.0625 8.5005 15.0625L8.5 29.125ZM21 30.422H11V29.672H21V30.422ZM13.1875 29.125V23.5H15.7655V29.125H13.1875ZM16.2345 29.125V23.5H18.8125V29.125H16.2345ZM22.5625 29.125H19.75V23.5H20.6875V22.5595C20.6875 22.5595 17.466 20.613 16.444 19.8855C16.3129 19.797 16.1584 19.7497 16.0002 19.7497C15.8421 19.7497 15.6876 19.797 15.5565 19.8855C14.5345 20.613 11.313 22.5595 11.313 22.5595V23.5H12.25V29.125H9.4375V14.125H8.5C8.242 14.125 8.1945 13.9905 8.393 13.827L15.638 7.86C15.7375 7.7785 15.869 7.7375 16 7.7375C16.131 7.7375 16.262 7.7785 16.362 7.86L23.607 13.827C23.8055 13.9905 23.758 14.125 23.5 14.125H22.5625V29.125ZM29.125 29.125H23.5V15.0625C24.1285 15.0625 24.4845 14.697 24.607 14.3545C24.632 14.284 24.648 14.2065 24.657 14.125H29.1255L29.125 29.125Z" fill="#7aaa23"/>
<path d="M14.623 26.0781H15.297V26.4186H14.623V26.0781Z" fill="#7aaa23"/>
<path d="M16.703 26.0781H17.377V26.4186H16.703V26.0781Z" fill="#7aaa23"/>
</svg>
