<svg width="18" height="18" viewBox="0 0 18 18" fill="none" xmlns="http://www.w3.org/2000/svg">
<path fill-rule="evenodd" clip-rule="evenodd" d="M9.3354 0.829178C9.12427 0.723607 8.87573 0.723607 8.6646 0.829178L3.41459 3.45418C3.1605 3.58122 3 3.84092 3 4.125C3 4.40908 3.1605 4.66878 3.41459 4.79582L4.93952 5.55829C4.65785 6.14644 4.5 6.8053 4.5 7.5C4.5 8.8953 5.13501 10.1423 6.13179 10.9676C3.73816 11.8094 2.25 13.6855 2.25 15.75C2.25 16.1642 2.58579 16.5 3 16.5C3.41421 16.5 3.75 16.1642 3.75 15.75C3.75 14.0479 5.51647 12 9 12C12.4835 12 14.25 14.0479 14.25 15.75C14.25 16.1642 14.5858 16.5 15 16.5C15.4142 16.5 15.75 16.1642 15.75 15.75C15.75 13.6855 14.2618 11.8094 11.8682 10.9676C12.865 10.1423 13.5 8.8953 13.5 7.5C13.5 6.8053 13.3421 6.14644 13.0605 5.55829L14.5854 4.79582C14.8395 4.66878 15 4.40908 15 4.125C15 3.84092 14.8395 3.58122 14.5854 3.45418L9.3354 0.829178ZM9 10.5C10.6568 10.5 12 9.15683 12 7.5C12 7.04514 11.8992 6.61481 11.7186 6.22925L9.3354 7.42082C9.12427 7.5264 8.87573 7.5264 8.6646 7.42082L6.28144 6.22925C6.10082 6.61481 6 7.04514 6 7.5C6 9.15683 7.34314 10.5 9 10.5ZM6.33521 4.57908L5.42705 4.125L9 2.33852L12.5729 4.125L11.6648 4.57908L9 5.91148L6.33521 4.57908Z" fill="#3A3C47"/>
</svg>
