<svg width="17" height="16" viewBox="0 0 17 16" fill="none" xmlns="http://www.w3.org/2000/svg">
<path d="M6.5 11.9192V4.47121C6.50003 4.33938 6.53914 4.21051 6.6124 4.10091C6.68565 3.9913 6.78976 3.90587 6.91156 3.85543C7.03336 3.80498 7.16738 3.79178 7.29669 3.81749C7.42599 3.8432 7.54476 3.90667 7.638 3.99988L11.362 7.72388C11.487 7.8489 11.5572 8.01844 11.5572 8.19521C11.5572 8.37199 11.487 8.54153 11.362 8.66655L7.638 12.3905C7.54476 12.4838 7.42599 12.5472 7.29669 12.5729C7.16738 12.5986 7.03336 12.5854 6.91156 12.535C6.78976 12.4846 6.68565 12.3991 6.6124 12.2895C6.53914 12.1799 6.50003 12.051 6.5 11.9192Z" fill="#351E99"/>
</svg>
