<svg width="203" height="140" viewBox="0 0 203 140" fill="none" xmlns="http://www.w3.org/2000/svg">
<path d="M196.619 100.895C196.63 101.808 196.469 102.714 196.147 103.561C195.825 104.408 195.347 105.178 194.742 105.828C194.136 106.478 193.415 106.993 192.62 107.345C191.825 107.697 190.971 107.878 190.11 107.878H143.621C144.296 109.186 144.554 110.691 144.354 112.168C144.155 113.644 143.509 115.012 142.514 116.067C142.134 116.468 141.711 116.818 141.252 117.112H149.84C153.432 117.112 156.472 120.117 156.519 123.919C156.529 124.832 156.369 125.738 156.046 126.585C155.724 127.431 155.246 128.202 154.641 128.852C154.035 129.501 153.314 130.017 152.519 130.37C151.724 130.722 150.871 130.904 150.01 130.904H107.321C105.896 130.904 104.511 130.408 103.378 129.494C102.245 128.579 101.426 127.296 101.047 125.841C100.668 124.386 100.75 122.839 101.28 121.438C101.811 120.037 102.76 118.859 103.983 118.085H78.4108C74.8187 118.085 71.7783 115.08 71.7321 111.278C71.7171 110.047 72.0135 108.834 72.5905 107.765C73.1675 106.697 74.004 105.811 75.0131 105.201C73.9558 104.619 73.0695 103.741 72.451 102.662C71.8325 101.584 71.5056 100.346 71.506 99.0833V90.6376C71.5049 89.5591 71.743 88.4954 72.2012 87.5323C72.6593 86.5693 73.3246 85.7337 74.1434 85.0931H28.1882C24.5995 85.0931 21.5627 82.096 21.5095 78.2974C21.4967 77.3831 21.6557 76.4753 21.9771 75.6267C22.2986 74.7781 22.7762 74.0057 23.3821 73.3546C23.9879 72.7034 24.71 72.1864 25.5062 71.8337C26.3024 71.481 27.1569 71.2996 28.0199 71.3002H31.2678C32.6014 71.3002 33.8804 70.7388 34.8234 69.7397C35.7664 68.7405 36.2961 67.3853 36.2961 65.9723V65.9683C36.2961 64.5553 35.7664 63.2001 34.8234 62.2009C33.8804 61.2018 32.6014 60.6404 31.2678 60.6404H9.64784C7.92202 60.6404 6.26688 59.914 5.04654 58.621C3.8262 57.3279 3.14063 55.5742 3.14062 53.7456C3.14062 51.9169 3.8262 50.1632 5.04654 48.8701C6.26688 47.5771 7.92202 46.8507 9.64784 46.8507H40.9073C42.6331 46.8512 44.2884 46.1252 45.5091 44.8325C46.7297 43.5398 47.4157 41.7862 47.4162 39.9576C47.4166 38.1289 46.7315 36.375 45.5115 35.0816C44.2914 33.7883 42.6365 33.0614 40.9106 33.0609H31.9822C28.3864 33.0609 25.3459 30.0489 25.3072 26.2393C25.2978 25.3274 25.4593 24.4227 25.7822 23.5774C26.1051 22.7321 26.583 21.9631 27.1884 21.3149C27.7937 20.6667 28.5144 20.1521 29.3087 19.801C30.1029 19.45 30.9551 19.2693 31.8157 19.2696H91.1872C94.684 19.2696 97.6857 22.1206 97.8544 25.8253C97.9117 27.0476 97.6616 28.2641 97.1296 29.3503H173.701C175.427 29.3503 177.082 30.0768 178.303 31.3698C179.523 32.6629 180.209 34.4166 180.209 36.2452C180.209 38.0739 179.523 39.8276 178.303 41.1206C177.082 42.4137 175.427 43.1401 173.701 43.1401H145.339C145.338 44.6238 144.781 46.0463 143.791 47.0956C142.801 48.1449 141.459 48.7353 140.059 48.7371H108.088C109.036 49.6849 109.693 50.9122 109.974 52.2601C110.256 53.608 110.149 55.0144 109.667 56.2972C109.186 57.5799 108.352 58.6799 107.273 59.4546C106.195 60.2294 104.922 60.6432 103.619 60.6424H94.6795C94.3276 60.6418 93.9791 60.7148 93.6538 60.857C93.3285 60.9993 93.0329 61.2081 92.7838 61.4714C92.5348 61.7348 92.3372 62.0477 92.2023 62.392C92.0674 62.7364 91.9979 63.1056 91.9977 63.4784V63.4824C91.9979 63.8552 92.0674 64.2244 92.2023 64.5688C92.3372 64.9131 92.5348 65.226 92.7838 65.4893C93.0329 65.7527 93.3285 65.9615 93.6538 66.1038C93.9791 66.246 94.3276 66.319 94.6795 66.3184H167.242C168.967 66.3184 170.623 67.0448 171.843 68.3378C173.063 69.6309 173.749 71.3846 173.749 73.2133C173.749 75.0419 173.063 76.7956 171.843 78.0887C170.623 79.3817 168.967 80.1081 167.242 80.1081H148.476C149.428 80.7251 150.214 81.5906 150.76 82.6217C151.305 83.6529 151.591 84.8152 151.591 85.9972V87.9638C151.592 89.229 151.264 90.4698 150.642 91.5503C150.021 92.6308 149.131 93.5091 148.07 94.0889H189.94C193.532 94.0889 196.572 97.0934 196.619 100.896" fill="#FBF8FF"/>
<path d="M183.609 58.8325V67.324" stroke="#3A3C47" stroke-width="2" stroke-miterlimit="10" stroke-linecap="round"/>
<path d="M179.602 63.0782H187.616" stroke="#3A3C47" stroke-width="2" stroke-miterlimit="10" stroke-linecap="round"/>
<path d="M53.4688 2.86996V10.37" stroke="#3A3C47" stroke-width="2" stroke-miterlimit="10" stroke-linecap="round"/>
<path d="M49.9277 6.62H57.0061" stroke="#3A3C47" stroke-width="2" stroke-miterlimit="10" stroke-linecap="round"/>
<path d="M193.028 14.8064C193.028 15.7933 192.752 16.7581 192.235 17.5788C191.717 18.3994 190.982 19.039 190.121 19.4166C189.26 19.7943 188.314 19.8931 187.4 19.7005C186.486 19.508 185.647 19.0327 184.989 18.3347C184.33 17.6368 183.881 16.7477 183.7 15.7797C183.518 14.8116 183.611 13.8083 183.968 12.8965C184.324 11.9847 184.928 11.2054 185.703 10.6571C186.477 10.1088 187.388 9.81624 188.319 9.81632C188.938 9.81632 189.55 9.9454 190.121 10.1962C190.693 10.447 191.212 10.8145 191.649 11.2779C192.087 11.7413 192.433 12.2914 192.67 12.8968C192.907 13.5022 193.028 14.1511 193.028 14.8064Z" stroke="#3A3C47" stroke-width="2" stroke-miterlimit="10"/>
<path d="M10.919 96.2879C10.9194 97.275 10.6435 98.24 10.1262 99.0608C9.6089 99.8817 8.87349 100.522 8.01295 100.9C7.15241 101.278 6.20541 101.377 5.29173 101.184C4.37804 100.992 3.53871 100.517 2.87991 99.819C2.2211 99.1211 1.77241 98.232 1.59058 97.2639C1.40876 96.2959 1.50197 95.2924 1.85842 94.3805C2.21487 93.4686 2.81856 92.6891 3.59312 92.1408C4.36768 91.5924 5.27832 91.2998 6.20987 91.2999C7.45852 91.3 8.65602 91.8255 9.53909 92.7609C10.4222 93.6962 10.9185 94.9649 10.919 96.2879Z" stroke="#3A3C47" stroke-width="2" stroke-miterlimit="10"/>
<path d="M201.5 85.8547C201.5 86.3324 201.367 86.7993 201.116 87.1965C200.866 87.5936 200.51 87.9031 200.093 88.0859C199.677 88.2686 199.218 88.3164 198.776 88.2232C198.334 88.13 197.928 87.9 197.609 87.5622C197.29 87.2245 197.073 86.7941 196.985 86.3257C196.897 85.8572 196.942 85.3716 197.115 84.9302C197.287 84.4889 197.579 84.1117 197.954 83.8463C198.329 83.5808 198.77 83.4391 199.221 83.439C199.825 83.439 200.405 83.6936 200.833 84.1466C201.26 84.5996 201.5 85.2141 201.5 85.8547Z" stroke="#3A3C47" stroke-width="2" stroke-miterlimit="10"/>
<path d="M27.395 76.1402C27.3949 76.6179 27.2611 77.0848 27.0106 77.482C26.7601 77.8791 26.4041 78.1886 25.9876 78.3714C25.5711 78.5541 25.1128 78.6019 24.6706 78.5087C24.2285 78.4155 23.8224 78.1855 23.5036 77.8477C23.1848 77.51 22.9677 77.0796 22.8798 76.6111C22.7918 76.1427 22.8369 75.6571 23.0094 75.2157C23.1819 74.7744 23.474 74.3972 23.8488 74.1318C24.2236 73.8663 24.6643 73.7246 25.1151 73.7245C25.7197 73.7245 26.2996 73.9791 26.7272 74.4321C27.1548 74.8851 27.395 75.4996 27.395 76.1402Z" stroke="#3A3C47" stroke-width="2" stroke-miterlimit="10"/>
<path d="M104.037 140C132.155 140 154.949 138.13 154.949 135.823C154.949 133.516 132.155 131.646 104.037 131.646C75.9191 131.646 53.125 133.516 53.125 135.823C53.125 138.13 75.9191 140 104.037 140Z" fill="#E3E4E8"/>
<path d="M97.716 0.701308L97.7227 0H97.4493L97.2537 0.202854L97.716 0.701308ZM124.595 1.00677L125.066 0.517002L124.875 0.309807L124.601 0.30665L124.595 1.00677ZM78.5059 20.6241L78.0436 20.1236L77.8481 20.3265L77.8451 20.6166L78.5059 20.6241ZM78.2176 49.1042L77.5557 49.0955L77.5527 49.3856L77.7442 49.5928L78.2176 49.1042ZM97.0202 69.4599L96.5479 69.9496L96.7394 70.1568L97.0131 70.16L97.0202 69.4599ZM123.899 69.7653L123.892 70.4655L124.165 70.4686L124.361 70.2658L123.899 69.7653ZM143.11 49.841L143.572 50.3414L143.768 50.1386L143.771 49.8485L143.11 49.841ZM143.398 21.3609L144.059 21.3684L144.062 21.0783L143.87 20.8711L143.398 21.3609ZM121.868 5.92343L122.335 5.42852L122.142 5.2233H121.868V5.92343ZM99.1455 5.92343V5.2233H98.8717L98.6781 5.42852L99.1455 5.92343ZM137.936 22.9478H138.597V22.6577L138.403 22.4525L137.936 22.9478ZM137.936 47.0243L138.403 47.5192L138.597 47.314V47.0239L137.936 47.0243ZM121.868 64.0491V64.7492H122.142L122.335 64.544L121.868 64.0491ZM99.1455 64.0491L98.6784 64.544L98.8721 64.7492H99.1459L99.1455 64.0491ZM83.0783 47.0243H82.4176V47.3144L82.6109 47.5196L83.0783 47.0243ZM83.0783 22.9478L82.6109 22.4525L82.4176 22.6577V22.9478H83.0783ZM97.7089 1.39946L124.588 1.70492L124.602 0.304676L97.7227 0L97.7089 1.39946ZM78.9681 21.1245L98.1782 1.20213L97.2537 0.201276L78.0436 20.1236L78.9681 21.1245ZM78.8784 49.1117L79.1666 20.6316L77.8451 20.6166L77.5557 49.0955L78.8784 49.1117ZM97.4921 68.9689L78.6899 48.6144L77.7457 49.5939L96.5479 69.9484L97.4921 68.9689ZM123.906 69.064L97.0269 68.7586L97.0127 70.1588L123.892 70.4643L123.906 69.064ZM142.646 49.3414L123.436 69.2625L124.361 70.2634L143.571 50.3406L142.646 49.3414ZM142.738 21.3538L142.45 49.8339L143.771 49.8489L144.059 21.3688L142.738 21.3538ZM124.122 1.49654L142.924 21.8507L143.869 20.8711L125.066 0.517002L124.122 1.49654ZM121.868 5.2233H99.1455L99.1459 6.62355H121.868V5.2233ZM138.403 22.4525L122.336 5.42813L121.402 6.41833L137.469 23.4427L138.403 22.4525ZM138.597 47.0239V22.9478H137.275V47.0243L138.597 47.0239ZM122.336 64.544L138.403 47.5192L137.469 46.529L121.402 63.5538L122.336 64.544ZM99.1459 64.7492H121.868V63.349H99.1459V64.7492ZM82.6109 47.5196L98.6784 64.544L99.6129 63.5542L83.5454 46.5302L82.6109 47.5196ZM82.4176 22.9478V47.0243L83.7387 47.0247V22.9478H82.4176ZM98.6784 5.42813L82.6109 22.4525L83.5454 23.4427L99.6129 6.41793L98.6784 5.42813Z" fill="#3A3C47"/>
<path d="M112.907 69.3122V128.308H108.281V69.3122" fill="#E3E4E8"/>
<path d="M112.907 69.3122V128.308H108.281V69.3122" stroke="#3A3C47" stroke-width="2"/>
<path d="M104.977 123.407H64.6719V128.308H104.977V123.407Z" fill="#E3E4E8" stroke="#3A3C47" stroke-width="2"/>
<path d="M78.2332 100.868L76.209 107.786H94.3656L91.9978 100.868H78.2332Z" fill="#E3E4E8"/>
<path d="M74.8845 112.785L71.6328 122.76H98.6614L95.517 112.038H74.8845V112.785Z" fill="white"/>
<path d="M82.9666 81.8864H86.8377L91.2513 96.2047H79.4199L82.9666 81.8864Z" fill="white"/>
<path d="M79.2158 96.6163L78.5826 96.4119L78.3219 97.3164H79.2158V96.6163ZM83.4463 81.9141V81.214H82.9569L82.8142 81.7097L83.4463 81.9141ZM90.9001 96.6163V97.316H91.7941L91.5333 96.4115L90.9001 96.6163ZM86.6696 81.9141L87.3028 81.7097L87.1587 81.214H86.6696V81.9141ZM75.9924 107.818L75.3592 107.613L75.0985 108.518H75.9924V107.818ZM78.0071 100.817V100.118H77.5162L77.3736 100.614L78.0071 100.817ZM94.1239 107.818V108.518H95.0178L94.7571 107.613L94.1239 107.818ZM92.1092 100.817L92.7424 100.612L92.5997 100.117H92.1103L92.1092 100.817ZM74.7834 112.019V111.319H74.294L74.1513 111.814L74.7834 112.019ZM71.6107 123.045L70.9775 122.841L70.7168 123.746H71.6107V123.045ZM95.3325 112.019L95.9657 111.814L95.8231 111.319H95.3336L95.3325 112.019ZM98.5052 123.045V123.746H99.3991L99.1384 122.841L98.5052 123.045ZM79.8479 96.8207L84.0784 82.1185L82.8142 81.7097L78.5837 96.4119L79.8479 96.8207ZM90.9001 95.9162H79.2158V97.3164L90.9001 97.316V95.9162ZM86.0376 82.1185L90.2681 96.8207L91.5322 96.4119L87.3017 81.7097L86.0376 82.1185ZM86.6708 81.214H83.4463V82.6142H86.6696L86.6708 81.214ZM76.6245 108.022L78.6388 101.021L77.3747 100.612L75.3604 107.613L76.6245 108.022ZM94.1235 107.118H75.9924V108.518H94.1239L94.1235 107.118ZM91.4771 101.021L93.4914 108.022L94.7556 107.613L92.7413 100.612L91.4771 101.021ZM78.0071 101.517H92.1092V100.118H78.0071V101.517ZM74.1513 111.814L70.9786 122.841L72.2428 123.25L75.4155 112.223L74.1513 111.814ZM95.3321 111.319H74.7834V112.719H95.3321V111.319ZM99.1369 122.843L95.9642 111.816L94.7001 112.225L97.8728 123.251L99.1369 122.843ZM71.6115 123.747H98.506V122.345H71.6107L71.6115 123.747Z" fill="#3A3C47"/>
<path d="M98.9459 6.6721H121.497L137.388 23.509V46.9008L121.497 63.1852H98.9459L83.7656 46.9008V23.5094L98.9459 6.6721Z" fill="#E3E4E8"/>
<path d="M109.597 48.7312C110.325 48.7312 110.915 48.1061 110.915 47.3349C110.915 46.5638 110.325 45.9386 109.597 45.9386C108.869 45.9386 108.279 46.5638 108.279 47.3349C108.279 48.1061 108.869 48.7312 109.597 48.7312Z" fill="#3A3C47"/>
<path d="M109.597 24.2932H109.597C108.869 24.2932 108.279 24.9183 108.279 25.6895V41.7493C108.279 42.5205 108.869 43.1456 109.597 43.1456H109.597C110.325 43.1456 110.915 42.5205 110.915 41.7493V25.6895C110.915 24.9183 110.325 24.2932 109.597 24.2932Z" fill="#3A3C47"/>
</svg>
