<svg width="280" height="280" viewBox="0 0 280 280" fill="none" xmlns="http://www.w3.org/2000/svg">
<g clip-path="url(#clip0_7697_3164)">
<rect width="280" height="280" fill="#F5F5F5"/>
<g clip-path="url(#clip1_7697_3164)">
<rect width="300" height="300" fill="white"/>
<path opacity="0.5" d="M115.719 119.64C111.088 127.216 96.668 158.46 99.0886 181.554C101.223 201.695 111.77 213.75 116.766 217.908C124.103 224.018 132.266 228.462 131.622 230.234C130.978 232.006 123.092 226.678 122.592 227.321C122.092 227.964 138.083 249.222 171.132 258.358C222.21 272.476 255.761 258.694 260.383 258.612C265.005 258.53 239.375 281 222.643 284.541C218.794 285.348 232.564 283.904 242.387 279.981C246.075 278.507 232.436 304.18 200.402 305.917C194.242 306.25 207.113 308.246 211.786 308.441C216.459 308.636 196.56 318.612 150.791 307.455C115.183 298.746 86.1051 265.184 77.295 231.921C76.3039 228.177 72.7356 229.945 72.1102 227.31C70.7752 221.686 73.4272 211.654 72.6827 209.48C71.9383 207.305 68.1157 208.745 67.9273 203.235C67.7389 197.726 70.8798 181.794 83.6573 157.492C85.1707 154.612 83.595 155.415 81.3102 157.838C79.0255 160.261 76.4521 162.33 74.4092 161.899C72.3664 161.467 74.6746 154.087 85.6234 141.583C104.401 120.09 119.919 112.795 115.719 119.64Z" fill="#F9C034"/>
<path d="M148.176 262.264C192.507 244.894 196.126 231.73 194.09 224.719L226.253 220.426L248.441 248.442L217.756 337.472C222.091 342.327 224.866 352.904 226.253 359.667C227.153 364.054 234.98 384.297 239.604 393.825L216.022 410.818L185.625 347.332C178.916 335.738 185.625 321.749 190.263 287.073L146.593 301.393C150.89 304.107 152.7 318.862 152.7 321.749C152.7 324.955 158.656 344.593 162.199 354.092L139.581 364.949L116.285 301.393C108.786 277.159 124.45 272.935 148.176 262.264Z" fill="#2B2B2B"/>
<path d="M190.263 287.073L146.593 301.393C150.89 304.107 152.7 318.862 152.7 321.749C152.7 324.955 158.656 344.593 162.199 354.092L139.581 364.949L116.285 301.393C108.786 277.159 124.45 272.935 148.176 262.264C192.507 244.894 196.126 231.73 194.09 224.719L226.253 220.426L248.441 248.442L217.756 337.472C222.091 342.327 224.866 352.904 226.253 359.667C227.153 364.054 234.98 384.297 239.604 393.825L216.022 410.818L185.625 347.332C178.916 335.738 185.625 321.749 190.263 287.073ZM190.263 287.073L194.09 258.035C194.747 256.025 195.667 251.819 194.09 251.077" stroke="black" stroke-width="0.385355" stroke-linecap="round" stroke-linejoin="round"/>
<path d="M201.018 153.384C206.76 148.008 208.239 140.573 208.261 137.528C214.112 130.851 225.553 117.861 224.509 119.323C223.204 121.15 222.877 136.288 218.832 143.662C214.199 155.473 193.84 160.105 201.018 153.384Z" fill="white" stroke="black" stroke-width="0.385355" stroke-linecap="round" stroke-linejoin="round"/>
<path d="M163.516 198.973C163.023 196.946 161.626 191.841 160.899 190.477C159.99 188.772 152.999 185.192 152.09 179.736C151.363 175.371 152.924 173.939 153.795 173.769C153.86 172.222 154.902 169.388 158.551 170.426C158.57 170.432 158.588 170.439 158.606 170.446C158.811 169.295 159.832 167.337 162.277 168.709C164.83 164.901 169.676 172.703 168.352 172.703C168.115 172.703 167.857 172.732 167.594 172.781C169.783 172.386 172.176 173.265 171.15 180.22C170.256 184.394 172.807 188.797 174.194 190.477L163.516 198.973Z" fill="white"/>
<path d="M153.795 173.769C152.924 173.939 151.363 175.371 152.09 179.736C152.999 185.192 159.99 188.772 160.899 190.477C161.626 191.841 163.023 196.946 163.516 198.973L174.194 190.477C172.807 188.797 170.256 184.394 171.15 180.22C172.718 169.587 166.297 173.154 164.83 173.769C164.207 174.03 163.36 174.441 162.636 174.911M153.795 173.769C154.009 173.727 154.575 173.396 156.082 173.769C157.589 174.141 158.942 177.902 159.43 179.736C159.5 180.72 158.928 182.262 156.082 180.554C155.011 179.9 154.436 178.301 154.282 177.583M153.795 173.769C153.86 172.222 154.902 169.388 158.551 170.426C158.57 170.432 158.588 170.439 158.606 170.446M162.874 177.753C163.041 179.106 162.275 180.925 159.128 178.715M158.606 170.446C158.811 169.295 159.832 167.337 162.277 168.709M158.606 170.446C160.782 171.446 161.34 172.828 162.636 174.911M162.277 168.709C163.884 169.614 165.248 172.403 165.583 173.435C166.183 173.156 167.426 172.703 168.352 172.703C169.676 172.703 164.83 164.901 162.277 168.709ZM164.872 183.945C164.467 182.382 164.21 178.922 166.42 177.583C168.63 176.243 166.638 176.47 166.42 176.913C165.768 177.204 164.715 178.411 162.277 177.583C160.318 176.918 161.251 175.809 162.636 174.911" stroke="black" stroke-width="0.385355" stroke-linecap="round" stroke-linejoin="round"/>
<path d="M229.98 49.8122C229.754 46.0717 229.136 38.5454 228.474 38.3647C227.645 38.1387 223.727 39.9466 222.901 36.7831C222.819 36.4697 212.706 32.6988 218.306 28.7999C216.555 27.0772 213.754 23.3653 216.568 22.2996C216.408 21.4825 216.675 19.7738 219.019 19.4754C219.116 19.7326 219.223 20.0037 219.338 20.285C218.896 18.6109 221.289 16.8798 221.908 16.4912C228.587 12.2971 230.66 13.9226 230.975 15.201C232.032 15.1436 233.377 15.6912 233.62 16.4913C234.526 19.4754 240.901 42.089 242.027 48.8486L229.98 49.8122Z" fill="white"/>
<path d="M218.306 28.7999C212.706 32.6988 222.819 36.4697 222.901 36.7831C223.727 39.9466 227.645 38.1387 228.474 38.3647C229.136 38.5454 229.754 46.0717 229.98 49.8122L242.027 48.8486C240.901 42.089 234.526 19.4754 233.62 16.4913C233.377 15.6912 232.032 15.1436 230.975 15.201M218.306 28.7999C216.555 27.0772 213.754 23.3653 216.568 22.2996M218.306 28.7999C218.994 28.3212 219.634 27.9688 220.222 27.723M216.568 22.2996C216.893 23.3042 218.08 25.7952 220.222 27.723M216.568 22.2996C216.408 21.4825 216.675 19.7738 219.019 19.4754C219.164 19.8588 219.33 20.2733 219.513 20.7063M220.222 27.723C224.725 25.8418 226.207 30.2029 222.901 31.9631C222.23 32.3976 220.909 32.9288 220.988 31.5779M227.619 26.1074C225.748 26.785 223.108 21.0334 223.651 19.4754C224.296 17.6211 228.091 15.3578 230.975 15.201M227.619 26.1074C227.619 26.1074 230.288 25.4943 231.362 24.2682C232.172 23.3436 231.206 22.1674 230.288 21.807M227.619 26.1074C227.407 26.6418 227.181 27.0668 226.942 27.3949M230.975 15.201C230.66 13.9226 228.587 12.2971 221.908 16.4912C221.237 16.9125 218.479 18.9122 219.513 20.7063M219.513 20.7063C221.038 24.3153 224.567 30.6608 226.942 27.3949M228.071 22.0417C228.394 21.8489 228.728 21.7319 229.053 21.6805M229.053 21.6805C229.296 21.5378 229.775 21.0746 229.749 20.3638M229.053 21.6805C229.493 21.6114 229.919 21.6617 230.288 21.807M230.288 21.807C230.743 21.9002 231.711 21.9485 231.943 21.3964M226.942 27.3949C226.15 29.5385 225.465 34.0893 229.053 35.1427" stroke="black" stroke-width="0.385355" stroke-linecap="round" stroke-linejoin="round"/>
<path d="M214.406 143.257C204.658 154.778 202.391 154.534 202.476 152.972C197.278 154.601 194.986 159.505 190.864 168.04L189.188 228.068L229.701 222.629L214.406 143.257Z" fill="#D4D1E9" stroke="black" stroke-width="0.385355" stroke-linecap="round" stroke-linejoin="round"/>
<path d="M194.871 136.941C199.239 144.126 208.226 138.828 210.483 137.35C217.781 132.572 224.503 121.533 224.503 121.533C232.341 111.67 224.503 108.676 219.22 115.281L216.666 101.191C203.546 89.8318 196.237 98.8137 193.243 105.506C191.516 109.366 189.412 127.959 194.871 136.941Z" fill="white" stroke="black" stroke-width="0.385355" stroke-linecap="round" stroke-linejoin="round"/>
<path d="M199.48 114.73C195.852 111.377 190.851 114.345 198.326 120.391" stroke="black" stroke-width="0.385355" stroke-linecap="round" stroke-linejoin="round"/>
<path d="M195.855 125.557C197.688 125.025 202.275 122.819 205.968 118.247C210.585 112.531 209.266 142.21 195.855 125.557Z" fill="#2B2B2B" stroke="black" stroke-width="0.385355" stroke-linecap="round" stroke-linejoin="round"/>
<path d="M200.305 129.678C201.349 127.462 204.394 122.841 208.219 122.094C208.219 126.186 205.84 133.241 200.305 129.678Z" fill="white" stroke="black" stroke-width="0.385355" stroke-linecap="round" stroke-linejoin="round"/>
<path d="M202.232 104.066C203.075 102.637 205.321 100.637 207.124 104.066M196.077 107.364C195.344 106.411 193.614 105.902 193.219 108.189" stroke="black" stroke-width="0.385355" stroke-linecap="round" stroke-linejoin="round"/>
<path d="M216.564 101.339C214.509 104.935 217.42 112.256 219.133 115.467C219.799 114.362 221.779 112.071 224.362 111.752C227.592 111.352 228.017 113.523 227.738 115.597C227.497 117.399 225.061 121.14 224.362 121.973C223.803 122.639 221.192 128.259 219.956 130.986C232.849 125.771 238.442 105.681 232.181 98.2691C225.919 90.8576 221.766 88.6214 212.246 84.9795C205.602 82.6794 194.91 81.9979 189.948 82.6794C189.335 85.5929 189.714 90.0908 190.395 90.9853C189.373 92.2121 186.988 90.4742 185.923 89.4519C183.495 92.7743 186.626 107.342 193.334 105.233C200.183 95.5728 211.674 98.6117 216.564 101.339Z" fill="#2B2B2B"/>
<path d="M220.902 120.06C220.558 118.857 220.601 117.378 221.145 116.326M225.494 114.282C223.998 113.135 222.228 114.232 221.145 116.326M221.145 116.326C221.927 115.437 223.59 114.779 223.883 117.123M219.133 115.467C217.42 112.256 214.509 104.935 216.564 101.339C211.674 98.6117 200.183 95.5728 193.334 105.233C186.626 107.342 183.495 92.7743 185.923 89.4519C186.988 90.4742 189.373 92.2121 190.395 90.9853C189.714 90.0908 189.335 85.5929 189.948 82.6794C194.91 81.9979 205.602 82.6794 212.246 84.9795C221.766 88.6214 225.919 90.8576 232.181 98.2691C238.442 105.681 232.849 125.771 219.956 130.986C221.192 128.259 223.803 122.639 224.362 121.973C225.061 121.14 227.497 117.399 227.738 115.597C228.017 113.523 227.592 111.352 224.362 111.752C221.779 112.071 219.799 114.362 219.133 115.467Z" stroke="black" stroke-width="0.385355" stroke-linecap="round" stroke-linejoin="round"/>
<path d="M214.666 144.78C213.405 131.379 225.646 129.269 229.447 121.363L232.526 90.1502L229.447 68.0776L222.947 66.9985C222.189 59.627 221.578 55.6895 222.947 49.3793C234.452 43.9657 240.724 43.392 251.683 43.0898C255.665 50.1853 255.964 53.9814 256.889 60.7896L251.683 63.7048C252.655 68.0082 255.056 79.0307 256.889 88.6926C258.721 98.3546 253.349 122.704 250.434 133.671C242.093 204.733 251.237 205.612 267.251 229.633C269.92 238.174 260.801 259.66 255.908 269.335C254.407 253.24 238.886 241.224 228.122 226.83C222.489 218.068 220.422 190.441 221.2 186.209C221.726 174.91 215.928 158.182 214.666 144.78Z" fill="#281B93"/>
<path d="M202.351 153.197C193.737 161.353 194.862 163.173 195.598 168.454C197.286 180.577 193.188 195.852 195.124 227.443C195.124 227.443 196.755 238.754 174.766 249.671L155.115 259.628C160.593 255.436 172.926 244.221 178.434 232.902C172.762 236.643 162.849 216.704 162.849 216.704L157.831 218.166C155.175 211.984 153.4 206.777 154.256 201.483C162.416 191.202 167.692 188.218 178.425 182.871C179.758 183.526 180.405 184.099 181.271 185.665L180.711 179.066C180.152 173.585 180.711 167.849 183.777 166.743C183.706 165.732 183.576 164.723 183.464 164.005C182.319 156.65 186.833 155.968 190.913 153.197C194.994 150.426 201.182 148.346 205.597 146.651L202.351 153.197Z" fill="#281B93"/>
<path d="M251.683 63.7048C252.655 68.0082 255.056 79.0307 256.889 88.6926C258.721 98.3546 253.349 122.704 250.434 133.671C242.093 204.733 251.237 205.612 267.251 229.633C269.92 238.174 260.801 259.66 255.908 269.335C254.407 253.24 238.886 241.224 228.122 226.83C222.489 218.068 220.422 190.441 221.2 186.209C221.726 174.91 215.928 158.182 214.666 144.78C213.405 131.379 225.646 129.269 229.447 121.363L232.526 90.1502L229.447 68.0776M251.683 63.7048C243.957 67.5344 239.228 68.7983 229.447 68.0776M251.683 63.7048L256.889 60.7896C255.964 53.9814 255.665 50.1853 251.683 43.0898C240.724 43.392 234.452 43.9657 222.947 49.3793C221.578 55.6895 222.189 59.627 222.947 66.9985L229.447 68.0776M190.913 153.197C194.994 150.426 201.182 148.346 205.597 146.651L202.351 153.197C193.737 161.353 194.862 163.173 195.598 168.454C197.286 180.577 193.188 195.852 195.124 227.443C195.124 227.443 196.755 238.754 174.766 249.671L155.115 259.628C160.593 255.436 172.926 244.221 178.434 232.902M190.913 153.197C187.444 155.625 189.131 163.501 189.131 163.501C189.131 164.661 189.131 165.738 189.131 166.743M190.913 153.197C186.833 155.968 182.319 156.65 183.464 164.005C183.576 164.723 183.706 165.732 183.777 166.743M178.434 232.902C181.617 226.363 183.801 217.347 185.231 209.54M178.434 232.902C172.762 236.643 162.849 216.704 162.849 216.704M189.131 166.743C189.123 179.773 189.017 180.65 187.535 193.008C187.535 193.008 186.894 200.455 185.231 209.54M189.131 166.743L183.464 170.316C183.743 169.925 183.837 169.069 183.832 168.074C183.83 167.647 183.809 167.195 183.777 166.743M185.231 209.54C184.462 205.677 183.763 201.898 183.089 198.265M162.849 216.704C172.665 211.795 177.924 208.75 183.089 198.265M162.849 216.704L157.831 218.166C155.175 211.984 153.4 206.777 154.256 201.483C162.416 191.202 167.692 188.218 178.425 182.871C179.758 183.526 180.405 184.099 181.271 185.665M183.089 198.265C182.285 193.936 182.079 189.476 181.271 185.665M181.271 185.665L180.711 179.066C180.152 173.585 180.711 167.849 183.777 166.743" stroke="black" stroke-width="0.385355" stroke-linecap="round" stroke-linejoin="round"/>
<ellipse cx="204.336" cy="111.202" rx="1.18346" ry="3.22552" fill="black" stroke="black" stroke-width="0.385355" stroke-linecap="round" stroke-linejoin="round"/>
<path d="M195.193 113.299C195.193 113.299 193.484 114.145 194.638 116.741C194.159 116.741 193.473 115.456 193.473 113.772C193.473 112.089 193.861 110.724 194.34 110.724C194.819 110.724 195.193 111.616 195.193 113.299Z" fill="black" stroke="black" stroke-width="0.385355" stroke-linecap="round" stroke-linejoin="round"/>
<path d="M54.2098 250.308C45.3019 257.09 26.8895 270.14 24.5031 268.087C22.1168 266.034 27.228 243.824 30.0819 232.976C30.2333 231.377 33.6126 228.061 46.0573 237.847C56.013 245.677 55.6385 249.492 54.2098 250.308Z" fill="#FFC107"/>
<path d="M49.8831 253.514C40.7017 250.52 30.4843 242.032 28.6297 238.701L27.545 243.331C30.154 247.709 41.6568 254.835 46.5679 255.947L49.8831 253.514Z" fill="#FF8F00"/>
<path d="M42.3067 258.901C35.2592 257.501 28.4195 251.166 26.5648 247.835L25.6615 252.216C28.2705 256.594 33.7397 260.305 39.2612 260.967L42.3067 258.901Z" fill="#FF8F00"/>
<path d="M34.8959 263.752C31.2114 263.305 26.6588 260.274 24.8042 256.943L24.1239 261.484C24.7015 263.03 28.46 266.225 31.0159 266.032L34.8959 263.752Z" fill="#FF8F00"/>
<path d="M54.2095 250.308C48.1234 252.968 30.2986 238.92 30.0816 232.976C30.233 231.377 33.6123 228.061 46.057 237.847C56.0127 245.677 55.6382 249.492 54.2095 250.308Z" fill="#FFC107"/>
<path d="M23.5677 209.822C22.1205 206.681 21.5534 208.744 21.4508 210.169C18.532 211.428 20.4458 211.982 21.7676 212.101C23.2723 215.131 23.8058 213.133 23.8845 211.754C27.1723 210.132 25.0432 209.79 23.5677 209.822Z" fill="#FB8C00"/>
<path d="M46.2786 149.785C44.8315 146.645 44.2644 148.708 44.1617 150.132C41.2429 151.392 43.1567 151.946 44.4785 152.065C45.9832 155.095 46.5168 153.096 46.5954 151.718C49.8832 150.096 47.7541 149.754 46.2786 149.785Z" fill="#281B93"/>
<path d="M76.5013 197.966C75.6256 196.066 75.2825 197.315 75.2203 198.176C73.4542 198.939 74.6123 199.274 75.412 199.346C76.3225 201.179 76.6453 199.97 76.6929 199.136C78.6823 198.154 77.3941 197.947 76.5013 197.966Z" fill="#E6E6E6"/>
<path d="M84.474 225.192C82.3463 223.449 82.6582 225.122 83.0801 226.177C81.43 228.093 82.9919 227.824 83.9791 227.45C86.1096 229.094 85.7961 227.478 85.373 226.465C87.1609 224.16 85.5186 224.656 84.474 225.192Z" fill="#FB8C00"/>
<path d="M46.517 233.52C38.9633 234.183 44.3693 231.996 48.0165 230.82C48.6499 230.642 50.7177 230.007 53.921 228.889C57.9252 227.492 49.2796 226.615 47.9754 224.36C46.6713 222.105 58.351 218.356 61.5425 217.571C64.734 216.786 58.1189 214.909 56.9972 213.526C55.8755 212.143 65.599 209.179 65.5424 209.782C65.4857 210.386 61.6484 211.385 61.1659 212.79C60.6834 214.196 68.2257 213.723 66.4105 217.43C64.5954 221.137 57.2391 220.892 53.0673 223.041C48.8955 225.19 57.5255 224.796 58.8683 226.236C60.2111 227.677 55.9593 232.69 46.517 233.52Z" fill="#F44336"/>
<path d="M36.5267 221.864C33.7731 226.747 32.5392 223.553 34.2983 220.359C35.3165 218.51 36.4931 211.985 33.0541 200.676C31.0438 195.083 33.8542 195.852 35.4823 200.278C36.9149 205.475 39.0733 217.348 36.5267 221.864Z" fill="#03A9F4"/>
<path d="M56.6988 247.714C49.793 247.028 49.4749 248.91 55.3982 249.55C57.3122 249.556 65.5787 251.796 68.831 259.443C71.5311 267.069 72.2046 261.54 70.5123 257.647C68.2677 252.483 63.3606 248.376 56.6988 247.714Z" fill="#F48FB1"/>
<ellipse cx="33.6791" cy="136.714" rx="1.77476" ry="1.77473" transform="rotate(-9.3078 33.6791 136.714)" fill="#7067B7"/>
<ellipse cx="102.177" cy="225.495" rx="1.37204" ry="1.37201" transform="rotate(-9.3078 102.177 225.495)" fill="#E6E6E6"/>
<ellipse cx="64.4899" cy="243.9" rx="1.37204" ry="1.37201" transform="rotate(-9.3078 64.4899 243.9)" fill="#FB8C00"/>
<ellipse cx="51.467" cy="129.354" rx="2.43016" ry="2.43012" transform="rotate(-9.3078 51.467 129.354)" fill="#281B93"/>
<ellipse cx="40.5355" cy="196.469" rx="1.33349" ry="1.33346" transform="rotate(-9.3078 40.5355 196.469)" fill="#FB8C00"/>
<ellipse cx="143.202" cy="130.224" rx="1.77476" ry="1.77473" transform="rotate(-9.3078 143.202 130.224)" fill="#281B93"/>
<rect x="84.4102" y="81.6787" width="21.9051" height="73.8282" transform="rotate(-7.74218 84.4102 81.6787)" fill="#F9C034" stroke="black" stroke-width="0.385355" stroke-linecap="round" stroke-linejoin="round"/>
<path d="M87.4422 192.625C87.4983 193.97 88.6399 195.014 89.9843 194.953C105.55 194.248 115.338 193.423 131.837 189.313C133.129 188.992 133.917 187.682 133.602 186.389L126.981 159.206C125.801 154.361 121.151 151.191 116.21 151.863L94.6999 154.787C89.7209 155.464 86.0751 159.819 86.2843 164.84L87.4422 192.625Z" fill="#2B2B2B"/>
<path d="M47.4982 51.0604C47.031 47.6243 49.1886 44.3702 52.5448 43.4981C78.6563 36.7129 96.6588 33.9766 127.407 33.3441C130.884 33.2726 133.855 35.835 134.323 39.2815L139.623 78.2663C142.883 102.241 126.09 124.319 102.114 127.579C78.1393 130.839 56.0613 114.045 52.8017 90.0701L47.4982 51.0604Z" fill="#F9C034" stroke="black" stroke-width="0.385355" stroke-linecap="round" stroke-linejoin="round"/>
<path d="M89.6635 49.7322C89.9434 48.1855 92.039 47.9006 92.7217 49.3165L101.209 66.9176C101.514 67.5508 102.192 67.9153 102.889 67.8206L122.251 65.1882C123.808 64.9765 124.727 66.8815 123.591 67.9683L109.474 81.4788C108.966 81.9648 108.829 82.7226 109.135 83.3558L117.621 100.957C118.304 102.373 116.776 103.835 115.392 103.091L98.18 93.8397C97.5608 93.5069 96.7978 93.6106 96.2899 94.0966L82.1728 107.607C81.0372 108.694 79.1744 107.693 79.4543 106.146L82.934 86.9179C83.0591 86.2262 82.7247 85.5325 82.1055 85.1997L64.8939 75.9485C63.5093 75.2044 63.886 73.1233 65.4435 72.9115L84.8057 70.2791C85.5022 70.1844 86.0586 69.652 86.1838 68.9603L89.6635 49.7322Z" fill="white" stroke="black" stroke-width="0.385355" stroke-linecap="round" stroke-linejoin="round"/>
</g>
<path d="M148.467 155.003C139.543 147.131 132.045 148.162 129.709 147.131L129.545 135.417C131.927 134.439 149.752 136.509 152.928 142.428L143.194 143.645L148.467 155.003Z" fill="#281B93" stroke="black" stroke-width="0.385355" stroke-linecap="round" stroke-linejoin="round"/>
<path d="M129.745 146.987L132.972 146.15L131.824 134.378L129.1 136.873L129.745 146.987Z" fill="#FF7A57"/>
<path d="M129.745 146.987L132.972 146.15L131.824 134.378L129.1 136.873L129.745 146.987Z" fill="black" fill-opacity="0.2"/>
<path d="M129.745 146.987L132.972 146.15L131.824 134.378L129.1 136.873L129.745 146.987Z" stroke="black" stroke-width="0.385355" stroke-linecap="round" stroke-linejoin="round"/>
<path d="M127.211 127.011C120.615 129.189 108.829 136.89 107.499 137.966L105.989 147.968C109.873 148.986 129.31 139.013 132.976 146.15L131.541 130.785C131.301 128.208 129.668 126.199 127.211 127.011Z" fill="#281B93" stroke="black" stroke-width="0.385355" stroke-linecap="round" stroke-linejoin="round"/>
<path d="M69.028 171.916C73.8592 161.041 81.1045 158.853 82.7982 156.942L78.0643 146.226C75.4923 146.33 60.1517 155.641 59.7316 162.345L69.0873 159.394L69.028 171.916Z" fill="#281B93" stroke="black" stroke-width="0.385355" stroke-linecap="round" stroke-linejoin="round"/>
<path d="M82.7044 156.826L79.4214 157.41L75.5586 146.231L79.0749 147.364L82.7044 156.826Z" fill="#FF7A57"/>
<path d="M82.7044 156.826L79.4214 157.41L75.5586 146.231L79.0749 147.364L82.7044 156.826Z" fill="black" fill-opacity="0.2"/>
<path d="M82.7044 156.826L79.4214 157.41L75.5586 146.231L79.0749 147.364L82.7044 156.826Z" stroke="black" stroke-width="0.385355" stroke-linecap="round" stroke-linejoin="round"/>
<path d="M76.6857 137.61C83.5893 136.841 97.5128 138.928 99.1699 139.351L104.711 147.814C101.605 150.358 79.7807 149.395 79.4227 157.41L74.3225 142.845C73.4673 140.403 74.1141 137.896 76.6857 137.61Z" fill="#281B93" stroke="black" stroke-width="0.385355" stroke-linecap="round" stroke-linejoin="round"/>
<circle cx="103.846" cy="143.6" r="6.4904" fill="#281B93" stroke="black" stroke-width="0.385355" stroke-linecap="round" stroke-linejoin="round"/>
</g>
<defs>
<clipPath id="clip0_7697_3164">
<rect width="280" height="280" fill="white"/>
</clipPath>
<clipPath id="clip1_7697_3164">
<rect width="300" height="300" fill="white"/>
</clipPath>
</defs>
</svg>
