<svg width="123" height="103" viewBox="0 0 123 103" fill="none" xmlns="http://www.w3.org/2000/svg">
<path fill-rule="evenodd" clip-rule="evenodd" d="M99.7178 4.23364C99.7489 2.19681 101.425 0.570872 103.462 0.602002C105.499 0.633132 107.125 2.30954 107.094 4.34637L106.978 11.9333C106.947 13.9701 105.27 15.596 103.233 15.5649C101.197 15.5338 99.5707 13.8574 99.6019 11.8205L99.7178 4.23364ZM103.419 3.40168C102.929 3.39419 102.525 3.78582 102.517 4.27643L102.402 11.8633C102.394 12.3539 102.786 12.7577 103.276 12.7652C103.767 12.7727 104.171 12.3811 104.178 11.8905L104.294 4.30358C104.302 3.81298 103.91 3.40918 103.419 3.40168ZM107.511 19.5585C107.542 17.5217 109.218 15.8957 111.255 15.9269L118.842 16.0428C120.879 16.0739 122.505 17.7504 122.474 19.7872C122.442 21.824 120.766 23.45 118.729 23.4188L111.142 23.3029C109.106 23.2717 107.48 21.5953 107.511 19.5585ZM111.212 18.7265C110.722 18.719 110.318 19.1107 110.31 19.6013C110.303 20.0919 110.695 20.4957 111.185 20.5032L118.772 20.6191C119.263 20.6266 119.666 20.235 119.674 19.7444C119.681 19.2538 119.29 18.85 118.799 18.8425L111.212 18.7265ZM22.0753 25.4704C23.1868 21.1357 27.0933 18.1045 31.5682 18.1045H94.6343C99.1092 18.1045 103.016 21.1357 104.127 25.4704L110.93 52.0033C111.259 53.2849 111.325 54.6199 111.124 55.9276L107.171 81.6175C106.436 86.3983 102.322 89.9274 97.4853 89.9274H38.5465C35.6209 97.0719 28.5986 102.105 20.4008 102.105C9.576 102.105 0.800781 93.3295 0.800781 82.5047C0.800781 73.139 7.36977 65.3075 16.1517 63.3665L15.0595 55.8857C14.872 54.6015 14.9414 53.2929 15.2637 52.0358L22.0753 25.4704ZM18.922 62.9596C19.4101 62.9232 19.9033 62.9046 20.4008 62.9046C31.2255 62.9046 40.0008 71.6799 40.0008 82.5047C40.0008 84.0971 39.8109 85.6451 39.4525 87.1273H97.4853C100.94 87.1273 103.879 84.6066 104.404 81.1917L108.356 55.5018L108.364 55.4476L108.369 55.4151H87.4921L81.5744 63.7C79.7348 66.2754 76.7647 67.8039 73.5998 67.8039H53.4859C50.321 67.8039 47.3509 66.2754 45.5114 63.7L39.5936 55.4151H17.8208L17.8301 55.4812L18.922 62.9596ZM101.415 26.1659L108.197 52.6151H99.0115V51.7311V51.6513V44.2813V42.8028V33.953C99.0115 30.087 95.8775 26.9529 92.0115 26.9529H34.1889C30.3229 26.9529 27.1889 30.087 27.1889 33.953V42.8028V44.2813V51.6513V51.7311V52.6151H18.0058L24.7876 26.1659C25.5815 23.0697 28.3719 20.9045 31.5682 20.9045H94.6343C97.8307 20.9045 100.621 23.0697 101.415 26.1659ZM96.2115 37.2023C95.0415 36.3235 93.5873 35.8028 92.0115 35.8028H34.1889C32.613 35.8028 31.1588 36.3235 29.9889 37.2023V33.953C29.9889 31.6334 31.8693 29.753 34.1889 29.753H92.0115C94.3311 29.753 96.2115 31.6334 96.2115 33.953V37.2023ZM29.9889 52.6151H40.3141C40.7662 52.6151 41.1905 52.8335 41.4533 53.2014L47.7898 62.0725C49.1038 63.9121 51.2253 65.0039 53.4859 65.0039H73.5998C75.8605 65.0039 77.9819 63.9121 79.2959 62.0725L85.6324 53.2014C85.8952 52.8335 86.3195 52.6151 86.7716 52.6151H96.2115V51.8637L95.9298 50.3903C95.8941 50.2034 95.8512 50.0194 95.8013 49.8386C95.1246 48.4265 93.6819 47.4513 92.0115 47.4513H34.1889C32.2564 47.4513 30.6288 48.7563 30.1393 50.5332C30.116 50.6712 30.0966 50.8106 30.0814 50.9514L29.9889 51.8067V52.6151ZM3.60078 82.5047C3.60078 73.2263 11.1224 65.7046 20.4008 65.7046C29.6792 65.7046 37.2008 73.2263 37.2008 82.5047C37.2008 91.7831 29.6792 99.3047 20.4008 99.3047C11.1224 99.3047 3.60078 91.7831 3.60078 82.5047ZM16.9008 73.4047C16.9008 71.4717 18.4678 69.9046 20.4008 69.9046C22.3338 69.9046 23.9008 71.4717 23.9008 73.4047V81.8047C23.9008 83.7377 22.3338 85.3047 20.4008 85.3047C18.4678 85.3047 16.9008 83.7377 16.9008 81.8047V73.4047ZM20.4008 72.7047C20.0142 72.7047 19.7008 73.0181 19.7008 73.4047V81.8047C19.7008 82.1913 20.0142 82.5047 20.4008 82.5047C20.7874 82.5047 21.1008 82.1913 21.1008 81.8047V73.4047C21.1008 73.0181 20.7874 72.7047 20.4008 72.7047ZM20.4008 95.1047C18.4678 95.1047 16.9008 93.5377 16.9008 91.6047C16.9008 89.6717 18.4678 88.1047 20.4008 88.1047C22.3338 88.1047 23.9008 89.6717 23.9008 91.6047C23.9008 93.5377 22.3338 95.1047 20.4008 95.1047ZM19.7008 91.6047C19.7008 91.9913 20.0142 92.3047 20.4008 92.3047C20.7874 92.3047 21.1008 91.9913 21.1008 91.6047C21.1008 91.2181 20.7874 90.9047 20.4008 90.9047C20.0142 90.9047 19.7008 91.2181 19.7008 91.6047Z" fill="#3A3C47"/>
</svg>
