<svg width="41" height="40" viewBox="0 0 41 40" fill="none" xmlns="http://www.w3.org/2000/svg">
<g clip-path="url(#clip0_6465_2870)">
<path d="M35.5026 25V30H40.5026V33.3333H35.5026V38.3333H32.1693V33.3333H27.1693V30H32.1693V25H35.5026ZM35.5163 5C36.4293 5 37.1693 5.74158 37.1693 6.65567L37.1704 22.2362C36.1274 21.8673 35.0051 21.6667 33.8359 21.6667V8.33333H7.16927L7.17094 31.6667L22.6574 16.1786C23.2573 15.5767 24.2026 15.5304 24.8564 16.0387L25.0134 16.1795L30.9228 22.0977C26.8209 23.3448 23.8359 27.1572 23.8359 31.6667C23.8359 32.8358 24.0366 33.9582 24.4054 35.0012L5.48894 35C4.57602 35 3.83594 34.2585 3.83594 33.3443V6.65567C3.83594 5.74127 4.59479 5 5.48894 5H35.5163ZM13.8359 11.6667C15.6769 11.6667 17.1693 13.159 17.1693 15C17.1693 16.841 15.6769 18.3333 13.8359 18.3333C11.995 18.3333 10.5026 16.841 10.5026 15C10.5026 13.159 11.995 11.6667 13.8359 11.6667Z" fill="white"/>
</g>
<defs>
<clipPath id="clip0_6465_2870">
<rect width="40" height="40" fill="white" transform="translate(0.5)"/>
</clipPath>
</defs>
</svg>
