<svg width="12" height="12" viewBox="0 0 12 12" fill="none" xmlns="http://www.w3.org/2000/svg">
<path d="M10.3567 4.06406L10.2334 4.3469C10.1432 4.55396 9.8568 4.55396 9.76655 4.3469L9.6433 4.06406C9.42355 3.55974 9.02775 3.15821 8.53385 2.93854L8.154 2.76961C7.94865 2.67827 7.94865 2.37941 8.154 2.28806L8.5126 2.12857C9.0192 1.90326 9.4221 1.48687 9.63805 0.965415L9.76465 0.659765C9.8529 0.446745 10.1471 0.446745 10.2353 0.659765L10.3619 0.965415C10.5779 1.48687 10.9808 1.90326 11.4874 2.12857L11.846 2.28806C12.0514 2.37941 12.0514 2.67827 11.846 2.76961L11.4662 2.93854C10.9722 3.15821 10.5765 3.55974 10.3567 4.06406ZM1.4959 1.5H7V2.5H2V9.5L6.64615 4.85325C6.8414 4.65798 7.15795 4.65796 7.35325 4.85321L10 7.5052V5.5H11V10.0033C11 10.2776 10.7724 10.5 10.5041 10.5H1.4959C1.22203 10.5 1 10.2775 1 10.0033V1.9967C1 1.72238 1.22766 1.5 1.4959 1.5ZM4 5.5C3.44772 5.5 3 5.0523 3 4.5C3 3.94772 3.44772 3.5 4 3.5C4.55228 3.5 5 3.94772 5 4.5C5 5.0523 4.55228 5.5 4 5.5Z" fill="white"/>
</svg>
