<svg width="12" height="15" viewBox="0 0 12 15" fill="none" xmlns="http://www.w3.org/2000/svg">
<path d="M4.64612 11.0007H7.34866C7.43666 10.1996 7.84546 9.53832 8.50913 8.81572C8.58386 8.73438 9.06326 8.23825 9.12013 8.16738C9.68526 7.46272 9.9974 6.59065 9.9974 5.66732C9.9974 3.45818 8.20653 1.66732 5.9974 1.66732C3.78826 1.66732 1.9974 3.45818 1.9974 5.66732C1.9974 6.59018 2.30922 7.46178 2.87381 8.16625C2.93076 8.23732 3.41127 8.73478 3.48509 8.81518C4.14917 9.53825 4.55808 10.1996 4.64612 11.0007ZM7.33073 12.334H4.66406V13.0007H7.33073V12.334ZM1.83336 9.00012C1.1017 8.08712 0.664062 6.92832 0.664062 5.66732C0.664062 2.7218 3.05188 0.333984 5.9974 0.333984C8.94293 0.333984 11.3307 2.7218 11.3307 5.66732C11.3307 6.92898 10.8926 8.08832 10.1603 9.00159C9.74673 9.51718 8.66406 10.334 8.66406 11.334V13.0007C8.66406 13.7371 8.06713 14.334 7.33073 14.334H4.66406C3.92768 14.334 3.33073 13.7371 3.33073 13.0007V11.334C3.33073 10.334 2.24712 9.51638 1.83336 9.00012ZM6.66406 5.67052H8.33073L5.33073 9.67052V7.00385H3.66406L6.66406 3.00065V5.67052Z" fill="#1D1F2C"/>
<path d="M4.64612 11.0007H7.34866C7.43666 10.1996 7.84546 9.53832 8.50913 8.81572C8.58386 8.73438 9.06326 8.23825 9.12013 8.16738C9.68526 7.46272 9.9974 6.59065 9.9974 5.66732C9.9974 3.45818 8.20653 1.66732 5.9974 1.66732C3.78826 1.66732 1.9974 3.45818 1.9974 5.66732C1.9974 6.59018 2.30922 7.46178 2.87381 8.16625C2.93076 8.23732 3.41127 8.73478 3.48509 8.81518C4.14917 9.53825 4.55808 10.1996 4.64612 11.0007ZM7.33073 12.334H4.66406V13.0007H7.33073V12.334ZM1.83336 9.00012C1.1017 8.08712 0.664062 6.92832 0.664062 5.66732C0.664062 2.7218 3.05188 0.333984 5.9974 0.333984C8.94293 0.333984 11.3307 2.7218 11.3307 5.66732C11.3307 6.92898 10.8926 8.08832 10.1603 9.00159C9.74673 9.51718 8.66406 10.334 8.66406 11.334V13.0007C8.66406 13.7371 8.06713 14.334 7.33073 14.334H4.66406C3.92768 14.334 3.33073 13.7371 3.33073 13.0007V11.334C3.33073 10.334 2.24712 9.51638 1.83336 9.00012ZM6.66406 5.67052H8.33073L5.33073 9.67052V7.00385H3.66406L6.66406 3.00065V5.67052Z" fill="black" fill-opacity="0.2"/>
</svg>
