<svg width="23" height="22" viewBox="0 0 23 22" fill="none" xmlns="http://www.w3.org/2000/svg">
<path d="M7.91406 5.16667C7.91406 3.878 6.86939 2.83333 5.58073 2.83333C4.29206 2.83333 3.2474 3.878 3.2474 5.16667C3.2474 6.45533 4.29206 7.5 5.58073 7.5C6.86939 7.5 7.91406 6.45533 7.91406 5.16667ZM10.2474 5.16667C10.2474 7.744 8.15806 9.83333 5.58073 9.83333C3.0034 9.83333 0.914062 7.744 0.914062 5.16667C0.914062 2.58934 3.0034 0.5 5.58073 0.5C8.15806 0.5 10.2474 2.58934 10.2474 5.16667ZM22.4974 1.66667H13.1641V4H22.4974V1.66667ZM22.4974 9.83333H13.1641V12.1667H22.4974V9.83333ZM22.4974 18H13.1641V20.3333H22.4974V18ZM5.58073 19.1667C4.29206 19.1667 3.2474 18.122 3.2474 16.8333C3.2474 15.5446 4.29206 14.5 5.58073 14.5C6.86939 14.5 7.91406 15.5446 7.91406 16.8333C7.91406 18.122 6.86939 19.1667 5.58073 19.1667ZM5.58073 21.5C8.15806 21.5 10.2474 19.4106 10.2474 16.8333C10.2474 14.256 8.15806 12.1667 5.58073 12.1667C3.0034 12.1667 0.914062 14.256 0.914062 16.8333C0.914062 19.4106 3.0034 21.5 5.58073 21.5ZM5.58073 6.33333C6.22506 6.33333 6.7474 5.81099 6.7474 5.16667C6.7474 4.52234 6.22506 4 5.58073 4C4.9364 4 4.41406 4.52234 4.41406 5.16667C4.41406 5.81099 4.9364 6.33333 5.58073 6.33333Z" fill="white"/>
</svg>
