<svg width="28" height="28" viewBox="0 0 28 28" fill="none" xmlns="http://www.w3.org/2000/svg">
<path d="M14 25.6663C7.55667 25.6663 2.33333 20.4429 2.33333 13.9997C2.33333 7.55635 7.55667 2.33301 14 2.33301C17.8165 2.33301 21.205 4.16558 23.3336 6.99878L20.1727 6.99887C18.5275 5.54716 16.3666 4.66634 14 4.66634C8.84533 4.66634 4.66666 8.84501 4.66666 13.9997C4.66666 19.1544 8.84533 23.333 14 23.333C16.3672 23.333 18.5285 22.4517 20.1739 20.9994H23.3344C21.2059 23.8333 17.817 25.6663 14 25.6663ZM22.1667 18.6663V15.1663H12.8333V12.833H22.1667V9.33301L28 13.9997L22.1667 18.6663Z" fill="#F46A6A"/>
</svg>
