<svg width="12" height="16" viewBox="0 0 12 16" fill="none" xmlns="http://www.w3.org/2000/svg">
<path d="M9.33073 10.1629V14.7439C9.33073 14.928 9.18146 15.0773 8.9974 15.0773C8.937 15.0773 8.87773 15.0609 8.82593 15.0298L5.9974 13.3327L3.1689 15.0298C3.01104 15.1245 2.80628 15.0733 2.71156 14.9155C2.68048 14.8636 2.66406 14.8043 2.66406 14.7439V10.1629C1.44478 9.18555 0.664062 7.68362 0.664062 5.99935C0.664062 3.05383 3.05188 0.666016 5.9974 0.666016C8.94293 0.666016 11.3307 3.05383 11.3307 5.99935C11.3307 7.68362 10.55 9.18555 9.33073 10.1629ZM5.9974 9.99935C8.20653 9.99935 9.9974 8.20848 9.9974 5.99935C9.9974 3.79021 8.20653 1.99935 5.9974 1.99935C3.78826 1.99935 1.9974 3.79021 1.9974 5.99935C1.9974 8.20848 3.78826 9.99935 5.9974 9.99935ZM5.9974 8.66602C4.52464 8.66602 3.33073 7.47208 3.33073 5.99935C3.33073 4.52659 4.52464 3.33268 5.9974 3.33268C7.47013 3.33268 8.66406 4.52659 8.66406 5.99935C8.66406 7.47208 7.47013 8.66602 5.9974 8.66602Z" fill="#1D1F2C"/>
<path d="M9.33073 10.1629V14.7439C9.33073 14.928 9.18146 15.0773 8.9974 15.0773C8.937 15.0773 8.87773 15.0609 8.82593 15.0298L5.9974 13.3327L3.1689 15.0298C3.01104 15.1245 2.80628 15.0733 2.71156 14.9155C2.68048 14.8636 2.66406 14.8043 2.66406 14.7439V10.1629C1.44478 9.18555 0.664062 7.68362 0.664062 5.99935C0.664062 3.05383 3.05188 0.666016 5.9974 0.666016C8.94293 0.666016 11.3307 3.05383 11.3307 5.99935C11.3307 7.68362 10.55 9.18555 9.33073 10.1629ZM5.9974 9.99935C8.20653 9.99935 9.9974 8.20848 9.9974 5.99935C9.9974 3.79021 8.20653 1.99935 5.9974 1.99935C3.78826 1.99935 1.9974 3.79021 1.9974 5.99935C1.9974 8.20848 3.78826 9.99935 5.9974 9.99935ZM5.9974 8.66602C4.52464 8.66602 3.33073 7.47208 3.33073 5.99935C3.33073 4.52659 4.52464 3.33268 5.9974 3.33268C7.47013 3.33268 8.66406 4.52659 8.66406 5.99935C8.66406 7.47208 7.47013 8.66602 5.9974 8.66602Z" fill="black" fill-opacity="0.2"/>
</svg>
