<svg width="18" height="18" viewBox="0 0 18 18" fill="none" xmlns="http://www.w3.org/2000/svg">
<path d="M4.43974 7.92016H5.39986V13.6802H6.83986V8.64016H8.27986V13.6802H9.71986V8.64016H11.1599V13.6802H12.5999V7.92016H13.5596C13.8246 7.92016 14.0399 7.6552 14.0399 7.41652C14.0399 7.27216 13.9603 7.10944 13.8401 7.03096L13.8408 7.01224L13.8332 6.99892L13.8815 6.98704L9.35986 4.6582V3.97708C10.0799 4.35832 10.7822 3.70168 11.8799 4.0966V2.59216C10.7815 2.1976 10.0799 2.85388 9.35986 2.47264V2.37616C9.35986 2.257 9.1327 2.16016 8.99986 2.16016C8.86702 2.16016 8.63986 2.257 8.63986 2.37616V4.6582L4.11862 6.98236L4.21618 6.98992L4.31986 6.99388V6.9946C3.95986 7.07308 4.0405 7.2718 4.0405 7.41616C4.04014 7.6552 4.17478 7.92016 4.43974 7.92016ZM5.03986 14.0402L3.95986 15.1202H14.0399L12.9599 14.0402H5.03986ZM12.9599 8.28016V13.6802H13.2785L13.4192 13.8792L14.379 14.7789L14.7185 15.1202H17.6399V8.28016H12.9599ZM15.1199 12.6002H14.0399V11.5202H15.1199V12.6002ZM15.1199 10.4402H14.0399V9.36016H15.1199V10.4402ZM16.5599 12.6002H15.8399V11.5202H16.5599V12.6002ZM16.5599 10.4402H15.8399V9.36016H16.5599V10.4402ZM4.7209 13.6802H5.03986V8.28016H0.359863V15.1202H3.2809L3.62002 14.8149L4.58014 13.8789L4.7209 13.6802ZM2.15986 12.6002H1.43986V11.5202H2.15986V12.6002ZM2.15986 10.4402H1.43986V9.36016H2.15986V10.4402ZM3.95986 12.6002H2.87986V11.5202H3.95986V12.6002ZM3.95986 10.4402H2.87986V9.36016H3.95986V10.4402Z" fill="#3A3C47"/>
</svg>
