<svg width="18" height="18" viewBox="0 0 18 18" fill="none" xmlns="http://www.w3.org/2000/svg">
<g clip-path="url(#clip0_5551_10612)">
<path fill-rule="evenodd" clip-rule="evenodd" d="M11.7429 11.7479C11.8474 11.6433 11.9714 11.5603 12.108 11.5037C12.2446 11.4471 12.391 11.418 12.5388 11.418C12.6867 11.418 12.8331 11.4471 12.9696 11.5037C13.1062 11.5603 13.2303 11.6433 13.3348 11.7479L17.666 16.0792C17.8771 16.2901 17.9958 16.5763 17.9959 16.8747C17.996 17.1731 17.8775 17.4594 17.6666 17.6705C17.4556 17.8816 17.1695 18.0002 16.871 18.0003C16.5726 18.0004 16.2864 17.882 16.0753 17.671L11.744 13.3398C11.6394 13.2353 11.5564 13.1112 11.4998 12.9747C11.4432 12.8381 11.4141 12.6917 11.4141 12.5439C11.4141 12.396 11.4432 12.2496 11.4998 12.113C11.5564 11.9765 11.6394 11.8524 11.744 11.7479H11.7429Z" fill="#616476"/>
<path fill-rule="evenodd" clip-rule="evenodd" d="M7.3125 13.5C8.12505 13.5 8.92965 13.34 9.68035 13.029C10.4311 12.7181 11.1132 12.2623 11.6877 11.6877C12.2623 11.1132 12.7181 10.4311 13.029 9.68035C13.34 8.92965 13.5 8.12505 13.5 7.3125C13.5 6.49995 13.34 5.69535 13.029 4.94465C12.7181 4.19394 12.2623 3.51184 11.6877 2.93728C11.1132 2.36271 10.4311 1.90695 9.68035 1.596C8.92965 1.28504 8.12505 1.125 7.3125 1.125C5.67147 1.125 4.09766 1.7769 2.93728 2.93728C1.7769 4.09766 1.125 5.67147 1.125 7.3125C1.125 8.95353 1.7769 10.5273 2.93728 11.6877C4.09766 12.8481 5.67147 13.5 7.3125 13.5ZM14.625 7.3125C14.625 9.2519 13.8546 11.1119 12.4832 12.4832C11.1119 13.8546 9.2519 14.625 7.3125 14.625C5.3731 14.625 3.51314 13.8546 2.14178 12.4832C0.770422 11.1119 0 9.2519 0 7.3125C0 5.3731 0.770422 3.51314 2.14178 2.14178C3.51314 0.770422 5.3731 0 7.3125 0C9.2519 0 11.1119 0.770422 12.4832 2.14178C13.8546 3.51314 14.625 5.3731 14.625 7.3125Z" fill="#616476"/>
</g>
<defs>
<clipPath id="clip0_5551_10612">
<rect width="18" height="18" fill="white"/>
</clipPath>
</defs>
</svg>
