<svg width="28" height="28" viewBox="0 0 28 28" fill="none" xmlns="http://www.w3.org/2000/svg">
<path d="M6.38428 12.6627C6.38428 13.934 7.15811 15.0315 8.27171 15.3483C9.10635 17.6653 11.3109 19.2188 13.7723 19.2188C16.2337 19.2188 18.4382 17.6653 19.2728 15.3483C20.3865 15.0315 21.1603 13.9344 21.1603 12.6627C21.1603 11.8046 20.792 10.9865 20.1726 10.4617L20.2634 9.97381C20.2634 9.79209 20.2509 9.61463 20.2366 9.43673L20.225 9.29492L20.1039 9.37006C18.4157 10.4171 15.6806 10.8855 13.719 10.8855C11.8131 10.8855 9.13096 10.4362 7.43526 9.43252L7.31172 9.40025L7.30144 9.53992C7.29094 9.68386 7.28044 9.82736 7.28192 9.99L7.37117 10.463C6.75221 10.9878 6.38428 11.8055 6.38428 12.6627Z" fill="white"/>
<path d="M19.4774 20.8402C18.9505 20.5138 18.4529 20.2055 18.05 19.887L17.9987 19.8467L17.9456 19.8845C17.5689 20.1532 16.2391 21.5344 15.1552 22.6829L14.5567 21.5196L14.8682 21.2967V20.1562H12.6769V21.2967L12.9885 21.5196L12.3897 22.6834C11.3055 21.5344 9.97502 20.1533 9.59877 19.8845L9.54556 19.8467L9.49432 19.887C9.09138 20.2055 8.59367 20.5138 8.06687 20.8402C6.42466 21.858 4.56348 23.0112 4.56348 25.07C4.56348 26.2865 7.42041 28.0001 13.7722 28.0001C20.1239 28.0001 22.9809 26.2865 22.9809 25.07C22.9808 23.0112 21.1195 21.858 19.4774 20.8402Z" fill="white"/>
<path d="M7.20092 7.20913C7.20092 8.22899 10.2699 9.52273 13.719 9.52273C17.1682 9.52273 20.2371 8.22905 20.2371 7.20913V5.80333L22.6162 4.83525V7.89567C22.339 7.93898 22.126 8.17928 22.126 8.46716C22.126 8.71341 22.2882 8.92828 22.522 9.00594L22.0488 12.1292H24.2748L23.8017 9.00594C24.0352 8.92823 24.1972 8.71336 24.1972 8.46716C24.1972 8.17759 23.9829 7.93685 23.7042 7.8948L23.6928 4.21996C23.7123 4.186 23.7123 4.15073 23.7123 4.13208C23.7123 4.11337 23.7123 4.07859 23.7041 4.07859H23.704C23.6897 3.94483 23.594 3.82638 23.4546 3.7695L22.8243 3.51137L14.6319 0.177078C14.3481 0.0611406 14.0325 0 13.719 0C13.4055 0 13.09 0.0611406 12.8063 0.177078L3.98333 3.76994C3.82676 3.83403 3.72559 3.97627 3.72559 4.13208C3.72559 4.2875 3.82665 4.42974 3.98349 4.49466L7.20092 5.80322V7.20913Z" fill="white"/>
</svg>
