<?xml version="1.0" encoding="UTF-8"?>
<svg version="1.1" xmlns="http://www.w3.org/2000/svg" width="1065" height="901">
<path d="M0 0 C0.72505334 -0.00297112 1.45010668 -0.00594224 2.19713134 -0.0090034 C4.63913811 -0.01771051 7.08109598 -0.01920034 9.52311707 -0.02069092 C11.26897283 -0.02531769 13.01482759 -0.03034215 14.76068115 -0.03573608 C19.51281261 -0.04887607 24.26492994 -0.0553082 29.01707673 -0.05974674 C31.98439554 -0.06267501 34.95171047 -0.06677935 37.91902733 -0.07125092 C47.19830394 -0.08493031 56.47757169 -0.09459469 65.75685769 -0.09845281 C76.4771893 -0.10293422 87.19739344 -0.12048414 97.91768628 -0.1494534 C106.19799367 -0.17105421 114.47826515 -0.18115624 122.75860041 -0.18249393 C127.70684146 -0.18354314 132.65496277 -0.18947563 137.60317421 -0.20731354 C142.25789983 -0.22376647 146.91241535 -0.22596327 151.56715965 -0.21717453 C153.27599016 -0.21640265 154.98483183 -0.22076669 156.69363403 -0.23063278 C159.02606932 -0.24331009 161.35775574 -0.2374989 163.69018555 -0.22705078 C164.99561215 -0.22851734 166.30103876 -0.2299839 167.64602375 -0.2314949 C171.29651926 0.16907621 173.14408763 0.91830284 176.03556824 3.14044189 C178.67859753 7.10498583 178.30071106 10.51071009 178.26261902 15.10992432 C178.26291107 16.02719803 178.26320313 16.94447174 178.26350403 17.88954163 C178.26210935 20.92509379 178.24654157 23.96040129 178.23088074 26.99591064 C178.2271511 29.09912482 178.2243039 31.20234072 178.2223053 33.30555725 C178.21466497 38.84417509 178.19501299 44.38268821 178.17289734 49.92126465 C178.15244755 55.57178328 178.14330543 61.22231881 178.13322449 66.87286377 C178.11176752 77.96210251 178.07762671 89.0512635 178.03556824 100.14044189 C177.42970886 100.00766846 176.82384949 99.87489502 176.19963074 99.73809814 C175.36174011 99.56149658 174.52384949 99.38489502 173.66056824 99.20294189 C172.84845886 99.02891846 172.03634949 98.85489502 171.19963074 98.67559814 C166.84373807 97.93886074 162.43140143 97.58002521 158.03556824 97.14044189 C158.03556824 71.73044189 158.03556824 46.32044189 158.03556824 20.14044189 C107.87556824 20.14044189 57.71556824 20.14044189 6.03556824 20.14044189 C6.36556824 63.04044189 6.69556824 105.94044189 7.03556824 150.14044189 C35.07625612 121.98101339 35.07625612 121.98101339 63.10050964 93.80523682 C68.53239441 88.35980225 68.53239441 88.35980225 71.0783844 85.81129456 C72.85255788 84.03251874 74.62375917 82.25077538 76.39259338 80.46669006 C79.07472571 77.76259574 81.76618144 75.06811083 84.45988464 72.37554932 C85.24397516 71.58066447 86.02806568 70.78577963 86.83591652 69.96680737 C95.58394119 61.26827993 95.58394119 61.26827993 102.41056824 61.01544189 C112.61652095 64.18280653 121.12708327 76.11987995 128.53556824 83.57794189 C129.84783409 84.89523248 131.16033218 86.21229176 132.47306824 87.52911377 C135.6632533 90.730228 138.85027474 93.93446054 142.03556824 97.14044189 C141.03556824 100.14044189 141.03556824 100.14044189 139.35588074 101.06231689 C138.26920105 101.47223877 138.26920105 101.47223877 137.16056824 101.89044189 C121.56336008 108.46160272 112.39742876 118.68493981 105.77775574 134.06231689 C101.82125548 144.96344349 101.70586397 157.12879915 104.05656433 168.43267822 C104.23915802 169.3186116 104.42175171 170.20454498 104.60987854 171.11732483 C104.75035614 171.78495346 104.89083374 172.45258209 105.03556824 173.14044189 C90.5189713 173.21054887 76.00240066 173.26323882 61.48566914 173.29587841 C54.74516449 173.31134184 48.00476509 173.33242121 41.264328 173.36676025 C34.76100241 173.39987552 28.25774515 173.41728913 21.75433922 173.42507362 C19.27159592 173.43062214 16.78885869 173.44145684 14.30616188 173.45763206 C10.83212409 173.47936849 7.3585399 173.48241034 3.88444519 173.48101807 C2.34048569 173.49719681 2.34048569 173.49719681 0.76533508 173.51370239 C-8.06766913 173.47532797 -8.06766913 173.47532797 -11.96443176 170.14044189 C-14.35541712 166.55396385 -14.22175816 164.96387409 -14.23858643 160.70114136 C-14.2438231 160.04465398 -14.24905978 159.38816661 -14.25445515 158.71178567 C-14.26948002 156.50776733 -14.27016083 154.30398063 -14.27082825 152.09991455 C-14.27844807 150.52139391 -14.28687526 148.94287699 -14.29605103 147.36436462 C-14.31802022 143.07301397 -14.32679814 138.78173458 -14.33187747 134.49033403 C-14.33551812 131.80994729 -14.34175664 129.12957929 -14.34887886 126.44919968 C-14.37338156 117.1001783 -14.38642707 107.75121249 -14.38996887 98.40216064 C-14.39360502 89.68437699 -14.42350386 80.96694521 -14.46537346 72.24926913 C-14.50005012 64.76722683 -14.51551685 57.28530128 -14.51621491 49.80317914 C-14.51700861 45.33328567 -14.52578973 40.86375051 -14.55421257 36.39393997 C-14.58034857 32.18966666 -14.58262384 27.98604988 -14.56655693 23.78173256 C-14.56473886 22.23898578 -14.57146557 20.69620165 -14.58737564 19.15353584 C-14.60778425 17.04614768 -14.59731985 14.941068 -14.5791626 12.83370972 C-14.58117393 11.65494577 -14.58318525 10.47618183 -14.58525753 9.26169777 C-13.78038451 5.21512824 -12.09379236 3.73455661 -8.96443176 1.14044189 C-5.99317902 -0.34518448 -3.31659167 0.00756404 0 0 Z " fill="#FFFFFF" transform="translate(449.9644317626953,263.85955810546875)"/>
<path d="M0 0 C6.6 0 13.2 0 20 0 C20 9.24 20 18.48 20 28 C29.57 28 39.14 28 49 28 C49 34.6 49 41.2 49 48 C39.43 48 29.86 48 20 48 C20 57.57 20 67.14 20 77 C13.4 77 6.8 77 0 77 C0 67.43 0 57.86 0 48 C-9.24 48 -18.48 48 -28 48 C-28 41.4 -28 34.8 -28 28 C-18.76 28 -9.52 28 0 28 C0 18.76 0 9.52 0 0 Z " fill="#FFFFFF" transform="translate(598,379)"/>
<path d="M0 0 C4.6225556 2.75001351 8.30291931 7.10797667 9.99609375 12.1875 C10.66126849 19.64618065 10.66040479 25.17299366 5.99609375 31.1875 C1.28200621 35.90158754 -2.56667029 37.3605737 -9.19140625 37.5625 C-14.40657751 37.49288704 -18.12799493 37.08939978 -22.34765625 33.93359375 C-26.49524247 29.56102054 -29.22073335 24.06461959 -29.50390625 18 C-28.68897138 11.78612158 -26.52135124 6.58606486 -22.00390625 2.1875 C-14.72892935 -2.13510763 -7.95907305 -3.22707055 0 0 Z " fill="#FFFFFF" transform="translate(503.00390625,303.8125)"/>
<path d="M0 0 C2.27734375 1.01953125 2.27734375 1.01953125 4 2 C4.33 1.34 4.66 0.68 5 0 C6.98 0 8.96 0 11 0 C11.07449251 4.44739413 11.12876257 8.8944519 11.16479492 13.34228516 C11.17982543 14.85341727 11.20025564 16.36450618 11.22631836 17.87548828 C11.26295689 20.05512187 11.27978338 22.23417575 11.29296875 24.4140625 C11.3086792 25.7232666 11.32438965 27.0324707 11.34057617 28.38134766 C10.90647862 32.99367305 9.44482378 36.25417127 6.5 39.8125 C2.24349076 43.18223648 -3.88915684 42.51838552 -9 42 C-13.20985682 40.07971443 -14.57301712 39.00923225 -16.375 34.75 C-16.58125 33.8425 -16.7875 32.935 -17 32 C-15.02 32 -13.04 32 -11 32 C-10.67 32.99 -10.34 33.98 -10 35 C-6.40735548 36.19754817 -3.77282526 36.33094958 0 36 C2.54331238 34.45714369 2.54331238 34.45714369 4 32 C4.33498301 29.33165034 4.33498301 29.33165034 4 27 C3.43152344 27.32355469 2.86304688 27.64710938 2.27734375 27.98046875 C-1.43393212 29.64194903 -5.0087999 29.45061937 -9 29 C-13.59601298 27.16159481 -15.86390823 24.43041256 -18 20 C-18.7878555 14.65213238 -18.6747335 10.39944725 -16.3125 5.5 C-11.41719842 0.20778207 -7.06394342 -0.97302977 0 0 Z M-9.875 6.9375 C-12.36004541 10.51888897 -12.74127589 12.5652983 -12.484375 16.83984375 C-11.6726873 20.45970907 -10.0140178 21.96881409 -7 24 C-3.02862719 24.7446324 -1.55900317 24.37266878 1.8125 22.125 C4.60921179 19.40819426 4.94303123 18.60386898 5.3125 14.6875 C4.95124058 10.42463889 3.98007946 8.98007946 1 6 C-3.12632997 3.93683501 -6.1129867 4.40223017 -9.875 6.9375 Z " fill="#FFFFFF" transform="translate(456,541)"/>
<path d="M0 0 C2.27734375 1.01953125 2.27734375 1.01953125 4 2 C4.33 1.34 4.66 0.68 5 0 C6.98 0 8.96 0 11 0 C11.07449251 4.44739413 11.12876257 8.8944519 11.16479492 13.34228516 C11.17982543 14.85341727 11.20025564 16.36450618 11.22631836 17.87548828 C11.26295689 20.05512187 11.27978338 22.23417575 11.29296875 24.4140625 C11.3086792 25.7232666 11.32438965 27.0324707 11.34057617 28.38134766 C10.90647862 32.99367305 9.44482378 36.25417127 6.5 39.8125 C2.24349076 43.18223648 -3.88915684 42.51838552 -9 42 C-13.20985682 40.07971443 -14.57301712 39.00923225 -16.375 34.75 C-16.58125 33.8425 -16.7875 32.935 -17 32 C-15.02 32 -13.04 32 -11 32 C-10.67 32.99 -10.34 33.98 -10 35 C-6.40735548 36.19754817 -3.77282526 36.33094958 0 36 C2.54331238 34.45714369 2.54331238 34.45714369 4 32 C4.33498301 29.33165034 4.33498301 29.33165034 4 27 C3.43152344 27.32355469 2.86304688 27.64710938 2.27734375 27.98046875 C-1.42785357 29.63922775 -5.01477632 29.4633981 -9 29 C-12.73698169 27.37522535 -14.84763317 25.44378693 -17 22 C-18.87664991 16.37005027 -18.93749151 10.90970492 -16.3125 5.5625 C-11.46502636 0.19097516 -7.07569438 -0.97464842 0 0 Z M-9.875 6.9375 C-12.36004541 10.51888897 -12.74127589 12.5652983 -12.484375 16.83984375 C-11.6726873 20.45970907 -10.0140178 21.96881409 -7 24 C-3.02862719 24.7446324 -1.55900317 24.37266878 1.8125 22.125 C4.60921179 19.40819426 4.94303123 18.60386898 5.3125 14.6875 C4.95124058 10.42463889 3.98007946 8.98007946 1 6 C-3.12632997 3.93683501 -6.1129867 4.40223017 -9.875 6.9375 Z " fill="#FFFFFF" transform="translate(927,541)"/>
<path d="M0 0 C1.65 0 3.3 0 5 0 C5.33 0.66 5.66 1.32 6 2 C6.99 1.34 7.98 0.68 9 0 C13.68476626 -0.75447546 17.05441901 -0.61752228 21.0625 2 C21.701875 2.66 22.34125 3.32 23 4 C23.804375 3.34 24.60875 2.68 25.4375 2 C29.44626394 -0.65984337 33.32959508 -0.85308134 38 0 C42.11150144 2.36192636 43.6857867 4.51415192 45 9 C45.23712373 12.44179746 45.18835166 15.86470768 45.125 19.3125 C45.11597656 20.24384766 45.10695312 21.17519531 45.09765625 22.13476562 C45.07418263 24.4234436 45.04134729 26.71158672 45 29 C43.02 29 41.04 29 39 29 C38.98541748 28.40985107 38.97083496 27.81970215 38.95581055 27.21166992 C38.88131156 24.53628771 38.78466005 21.86215108 38.6875 19.1875 C38.65366211 17.7943457 38.65366211 17.7943457 38.61914062 16.37304688 C38.58369141 15.48037109 38.54824219 14.58769531 38.51171875 13.66796875 C38.48553467 12.84578857 38.45935059 12.0236084 38.43237305 11.17651367 C37.90445614 8.51904375 37.15416157 7.60775869 35 6 C32 5.41666667 32 5.41666667 29 6 C26.10327051 8.49765512 25.76056939 10.9031049 25.48828125 14.546875 C25.41548657 16.28071202 25.35734304 18.01521501 25.3125 19.75 C25.27833984 20.63816406 25.24417969 21.52632812 25.20898438 22.44140625 C25.12671286 24.62747803 25.05749828 26.81315951 25 29 C23.02 29 21.04 29 19 29 C18.98541748 28.40985107 18.97083496 27.81970215 18.95581055 27.21166992 C18.88131156 24.53628771 18.78466005 21.86215108 18.6875 19.1875 C18.66494141 18.25873047 18.64238281 17.32996094 18.61914062 16.37304688 C18.5659668 15.0340332 18.5659668 15.0340332 18.51171875 13.66796875 C18.48553467 12.84578857 18.45935059 12.0236084 18.43237305 11.17651367 C17.90445614 8.51904375 17.15416157 7.60775869 15 6 C12 5.41666667 12 5.41666667 9 6 C6.10327051 8.49765512 5.76056939 10.9031049 5.48828125 14.546875 C5.41548657 16.28071202 5.35734304 18.01521501 5.3125 19.75 C5.27833984 20.63816406 5.24417969 21.52632812 5.20898438 22.44140625 C5.12671286 24.62747803 5.05749828 26.81315951 5 29 C3.35 29 1.7 29 0 29 C0 19.43 0 9.86 0 0 Z " fill="#FFFFFF" transform="translate(184,541)"/>
<path d="M0 0 C3 0 6 0 9 0 C10.15822266 -0.05220703 10.15822266 -0.05220703 11.33984375 -0.10546875 C12.19707031 -0.13253906 13.05429687 -0.15960937 13.9375 -0.1875 C15.21947266 -0.23970703 15.21947266 -0.23970703 16.52734375 -0.29296875 C19.48041861 0.05692164 20.80069009 1.05583045 23 3 C23.61875 2.690625 24.2375 2.38125 24.875 2.0625 C29.42669219 -0.2133461 32.90577544 -0.49355809 38 0 C40.92939473 1.24655095 42.43231751 2.09299876 44.11669922 4.78417969 C45.16340492 7.40991239 45.22812871 9.38093121 45.1953125 12.203125 C45.18886719 13.1828125 45.18242188 14.1625 45.17578125 15.171875 C45.15902344 16.18765625 45.14226563 17.2034375 45.125 18.25 C45.11597656 19.28125 45.10695313 20.3125 45.09765625 21.375 C45.07412011 23.91690287 45.04124023 26.4583328 45 29 C43.35 29 41.7 29 40 29 C39.94392578 27.13794922 39.94392578 27.13794922 39.88671875 25.23828125 C39.8210405 23.59632489 39.7545938 21.95439913 39.6875 20.3125 C39.65366211 19.08756836 39.65366211 19.08756836 39.61914062 17.83789062 C39.41159823 13.17762055 39.13272379 9.71313342 36 6 C32.75669901 5.45944983 30.93341416 5.3562661 28.1875 7.25 C25.40070593 11.35685441 25.69644115 16.44473151 25.4375 21.25 C25.39431641 21.99507812 25.35113281 22.74015625 25.30664062 23.5078125 C25.20103275 25.338349 25.10005799 27.16915176 25 29 C23.35 29 21.7 29 20 29 C19.98541748 28.44538086 19.97083496 27.89076172 19.95581055 27.31933594 C19.88113103 24.79553758 19.78453975 22.27303346 19.6875 19.75 C19.66494141 18.87730469 19.64238281 18.00460937 19.61914062 17.10546875 C19.41844493 12.06828844 19.41844493 12.06828844 17.64453125 7.41796875 C15.9754375 5.72226636 15.9754375 5.72226636 13 5.5625 C9.66241902 6.04923056 8.98766489 6.3915282 7 9 C6.49844978 11.2143507 6.49844978 11.2143507 6.48828125 13.66796875 C6.45283203 14.56064453 6.41738281 15.45332031 6.38085938 16.37304688 C6.35830078 17.30181641 6.33574219 18.23058594 6.3125 19.1875 C6.27833984 20.12787109 6.24417969 21.06824219 6.20898438 22.03710938 C6.12651782 24.35795393 6.05736597 26.67842148 6 29 C4.02 29 2.04 29 0 29 C0 19.43 0 9.86 0 0 Z " fill="#FFFFFF" transform="translate(507,541)"/>
<path d="M0 0 C1.98 0 3.96 0 6 0 C6.33 0.66 6.66 1.32 7 2 C7.56976562 1.67773438 8.13953125 1.35546875 8.7265625 1.0234375 C12.44936794 -0.6524646 15.99694043 -0.56293025 20 0 C24.38544865 2.19272433 27.23315916 4.38658225 29 9 C29.66198068 14.34488104 29.67332051 18.60348339 27.3125 23.5 C24.35729588 26.69481526 22.27273576 28.7434008 17.8203125 29.24609375 C13.30451481 29.37194385 11.19001139 29.09500569 7 27 C6.67 31.95 6.34 36.9 6 42 C4.02 42 2.04 42 0 42 C0 28.14 0 14.28 0 0 Z M7 9 C5.44975536 12.10048928 5.71007985 14.57894218 6 18 C7.79562405 20.75329021 9.05254922 22.52627461 12 24 C15.93429172 24.52457223 17.54458957 24.30690703 20.875 22.0625 C23.36004541 18.48111103 23.74127589 16.4347017 23.484375 12.16015625 C22.6726873 8.54029093 21.0140178 7.03118591 18 5 C12.9434695 4.05190053 10.6073012 5.49576455 7 9 Z " fill="#FFFFFF" transform="translate(658,541)"/>
<path d="M0 0 C1.98 0 3.96 0 6 0 C6.33 3.63 6.66 7.26 7 11 C8.32 10.34 9.64 9.68 11 9 C15.62516534 8.27679233 19.14401775 8.5878604 23.375 10.625 C26.87049631 13.7875919 28.6677963 16.43003525 29.28125 21.17578125 C29.48240805 26.16282447 28.92481335 29.80776753 26 34 C21.80304082 37.79724878 18.58888644 38.43138397 13.1484375 38.3359375 C10.77753661 37.96521482 9.07880521 37.1757948 7 36 C6.67 36.66 6.34 37.32 6 38 C4.02 38 2.04 38 0 38 C0 25.46 0 12.92 0 0 Z M8.0625 15.9375 C5.65400268 19.51375359 5.25796629 21.60531907 5.51953125 25.83984375 C6.33418371 29.50246824 7.92495364 30.97177793 11 33 C14.5 33.91666667 14.5 33.91666667 18 33 C21.75045172 29.72832935 22.84061673 28.32060421 23.4375 23.375 C23.04112611 20.31725856 22.7544412 18.49315329 21 16 C16.36170344 12.90780229 12.74389785 12.8497695 8.0625 15.9375 Z " fill="#FFFFFF" transform="translate(235,532)"/>
<path d="M0 0 C1.65 0 3.3 0 5 0 C5 12.54 5 25.08 5 38 C3.35 38 1.7 38 0 38 C-0.33 37.01 -0.66 36.02 -1 35 C-1.55816406 35.48726562 -2.11632812 35.97453125 -2.69140625 36.4765625 C-6.55608004 39.02685485 -10.52485355 38.53033391 -15 38 C-19.23236495 36.28904395 -21.18647212 34.17111412 -23 30 C-24.3509697 24.56494498 -24.36309865 19.89030236 -22.06640625 14.73046875 C-20.17181053 11.65608814 -18.27497352 10.45554379 -15 9 C-8.99363968 8.07838916 -6.37209131 8.77674522 -1 12 C-0.67 8.04 -0.34 4.08 0 0 Z M-17 18 C-18.36366962 22.00734814 -18.44137194 24.98484453 -16.75 28.875 C-14.43501985 31.68604733 -12.74650922 32.88640077 -9.125 33.4375 C-4.87927201 32.84309808 -3.56647639 31.37308325 -1 28 C0.30400002 24.16949995 0.20871714 22.54266456 -1.25 18.75 C-2.87059666 15.79437278 -2.87059666 15.79437278 -6 14 C-11.02959609 13.34396573 -13.63692526 14.15648601 -17 18 Z " fill="#FFFFFF" transform="translate(777,532)"/>
<path d="M0 0 C1.65 0 3.3 0 5 0 C5.33 3.96 5.66 7.92 6 12 C7.32 11.01 8.64 10.02 10 9 C14.5040051 8.25299428 18.70555085 8.47671205 22.9375 10.1875 C27.0839785 13.83137504 28.50761905 17.4304939 28.99609375 22.94921875 C29.00559008 27.93479135 27.74207397 31.14661493 24.5 34.875 C21.13771775 37.73293991 19.45608768 38.17288865 15.125 38.25 C14.26132812 38.27578125 13.39765625 38.3015625 12.5078125 38.328125 C9.54975351 37.94108924 8.20798216 36.95124005 6 35 C5.67 35.99 5.34 36.98 5 38 C3.35 38 1.7 38 0 38 C0 25.46 0 12.92 0 0 Z M8.1875 16.0625 C5.54610307 19.60951873 4.92251743 21.58349341 5 26 C7.22979668 30.25798376 7.22979668 30.25798376 11 33 C14.63523738 33.40391526 16.56005537 33.23463713 19.8125 31.5 C22.37607097 28.57020461 22.88517782 26.7752642 23.140625 22.96484375 C22.92825438 19.9975542 21.86808943 18.2683943 20 16 C15.50890951 13.00593967 12.60137568 12.82565783 8.1875 16.0625 Z " fill="#FFFFFF" transform="translate(559,532)"/>
<path d="M0 0 C0.76183594 -0.01417969 1.52367187 -0.02835938 2.30859375 -0.04296875 C4.79597315 0.21137334 6.41058106 0.94732804 8.5625 2.1875 C8.8925 1.5275 9.2225 0.8675 9.5625 0.1875 C11.5425 0.1875 13.5225 0.1875 15.5625 0.1875 C15.5625 9.7575 15.5625 19.3275 15.5625 29.1875 C13.5825 29.1875 11.6025 29.1875 9.5625 29.1875 C9.2325 28.5275 8.9025 27.8675 8.5625 27.1875 C8.00304687 27.50847656 7.44359375 27.82945312 6.8671875 28.16015625 C2.85998272 29.94641872 -1.1455113 29.85770013 -5.4375 29.1875 C-9.33102403 27.19306218 -11.82765514 24.23032305 -13.4375 20.1875 C-13.99814092 15.30191485 -14.11024127 10.72519432 -12.125 6.1875 C-8.37700012 1.74542607 -5.98723636 0.0504826 0 0 Z M-7.4375 10.1875 C-8.74150002 14.01800005 -8.64621714 15.64483544 -7.1875 19.4375 C-5.56690334 22.39312722 -5.56690334 22.39312722 -2.4375 24.1875 C1.22981219 24.66584507 3.09415147 24.43728588 6.375 22.6875 C8.93857097 19.75770461 9.44767782 17.9627642 9.703125 14.15234375 C9.49075438 11.1850542 8.43058943 9.4558943 6.5625 7.1875 C0.63527495 3.23601663 -3.2624595 4.70030392 -7.4375 10.1875 Z " fill="#FFFFFF" transform="translate(372.4375,540.8125)"/>
<path d="M0 0 C2.2734375 1.0234375 2.2734375 1.0234375 4 2 C4.33 1.34 4.66 0.68 5 0 C6.98 0 8.96 0 11 0 C11 9.57 11 19.14 11 29 C9.02 29 7.04 29 5 29 C4.67 28.34 4.34 27.68 4 27 C3.43023437 27.32226562 2.86046875 27.64453125 2.2734375 27.9765625 C-1.45242472 29.65384068 -4.99379157 29.55641784 -9 29 C-12.71015281 27.21363013 -14.5278978 25.67667982 -16.875 22.3125 C-18.73683919 16.83041794 -18.73683919 12.16958206 -16.875 6.6875 C-12.49640427 0.41151279 -7.31863119 -1.14436779 0 0 Z M-9.3125 6.875 C-12.31144573 10.65145018 -12.24825236 13.2004544 -12 18 C-10.81232145 21.38031589 -10.10174775 21.93216817 -7 24 C-1.9169001 24.56526648 -1.9169001 24.56526648 2.375 22.125 C5.27793217 18.32885793 5.4051942 15.78129155 5 11 C3.20437595 8.24670979 1.94745078 6.47372539 -1 5 C-4.72144389 4.59549523 -6.35169554 4.47434773 -9.3125 6.875 Z " fill="#FFFFFF" transform="translate(166,541)"/>
<path d="M0 0 C2.27734375 1.01953125 2.27734375 1.01953125 4 2 C4.33 1.34 4.66 0.68 5 0 C6.98 0 8.96 0 11 0 C11 9.57 11 19.14 11 29 C9.02 29 7.04 29 5 29 C4.67 28.34 4.34 27.68 4 27 C3.43152344 27.32355469 2.86304688 27.64710938 2.27734375 27.98046875 C-1.43393212 29.64194903 -5.0087999 29.45061937 -9 29 C-13.59601298 27.16159481 -15.86390823 24.43041256 -18 20 C-18.7878555 14.65213238 -18.6747335 10.39944725 -16.3125 5.5 C-11.41719842 0.20778207 -7.06394342 -0.97302977 0 0 Z M-9.8125 7.1875 C-12.08910851 10.11456808 -13 11.32690081 -13 15 C-11.18503087 20.38004613 -11.18503087 20.38004613 -7 24 C-3.1026276 24.50835292 -1.49443274 24.32962183 1.8125 22.125 C4.60921179 19.40819426 4.94303123 18.60386898 5.3125 14.6875 C4.95124058 10.42463889 3.98007946 8.98007946 1 6 C-3.20925286 3.89537357 -6.1511649 4.33979492 -9.8125 7.1875 Z " fill="#FFFFFF" transform="translate(609,541)"/>
<path d="M0 0 C2.2734375 1.0234375 2.2734375 1.0234375 4 2 C4.33 1.34 4.66 0.68 5 0 C6.98 0 8.96 0 11 0 C11 9.57 11 19.14 11 29 C9.02 29 7.04 29 5 29 C4.67 28.34 4.34 27.68 4 27 C3.43023437 27.32226562 2.86046875 27.64453125 2.2734375 27.9765625 C-1.45548639 29.65521896 -4.99065967 29.54989216 -9 29 C-13.11604547 27.0944234 -14.6401104 25.63580496 -16.875 21.6875 C-18.5104136 16.32697764 -18.5104136 12.67302236 -16.875 7.3125 C-12.95488521 0.38696388 -7.53038014 -1.17747762 0 0 Z M-11 9 C-12.55024464 12.10048928 -12.28992015 14.57894218 -12 18 C-10.20437595 20.75329021 -8.94745078 22.52627461 -6 24 C-2.06570828 24.52457223 -0.45541043 24.30690703 2.875 22.0625 C5.36004541 18.48111103 5.74127589 16.4347017 5.484375 12.16015625 C4.6726873 8.54029093 3.0140178 7.03118591 0 5 C-5.0565305 4.05190053 -7.3926988 5.49576455 -11 9 Z " fill="#FFFFFF" transform="translate(285,541)"/>
<path d="M0 0 C4.845 3.8475 4.845 3.8475 6.125 7.6875 C6.125 10.3275 6.125 12.9675 6.125 15.6875 C-4.27 16.1825 -4.27 16.1825 -14.875 16.6875 C-13.375 20.6875 -13.375 20.6875 -10.875 21.6875 C-7.45899407 22.10442853 -7.45899407 22.10442853 -3.875 21.6875 C-2.52131404 20.37483482 -1.18700404 19.04182675 0.125 17.6875 C3.375 17.4375 3.375 17.4375 6.125 17.6875 C3.87658085 23.95940605 3.87658085 23.95940605 1.125 26.625 C-4.78695803 28.71881847 -10.61669568 28.65534471 -16.375 26.1875 C-20.16145825 22.40104175 -21.79902048 18.72668081 -21.93359375 13.34375 C-21.58164631 8.85080392 -20.86815569 5.19671702 -17.875 1.6875 C-12.37225182 -2.1120166 -6.07845529 -2.77494698 0 0 Z M-13.25 5.5 C-15.04566872 7.67971829 -15.04566872 7.67971829 -15.875 10.6875 C-10.595 10.6875 -5.315 10.6875 0.125 10.6875 C-0.8102879 6.32774261 -0.8102879 6.32774261 -3.875 3.6875 C-7.89206374 3.17623734 -9.97873919 3.00351149 -13.25 5.5 Z " fill="#FFFFFF" transform="translate(711.875,542.3125)"/>
<path d="M0 0 C0.639375 0.495 1.27875 0.99 1.9375 1.5 C1.9375 0.51 1.9375 -0.48 1.9375 -1.5 C3.5875 -1.5 5.2375 -1.5 6.9375 -1.5 C6.9375 8.07 6.9375 17.64 6.9375 27.5 C5.2875 27.5 3.6375 27.5 1.9375 27.5 C1.9375 26.51 1.9375 25.52 1.9375 24.5 C1.31875 24.995 0.7 25.49 0.0625 26 C-4.36623082 28.12579079 -8.23840045 28.44531344 -13.0625 27.5 C-17.03904007 25.22155001 -19.60580193 22.87009421 -21.0625 18.5 C-21.97697713 7.1393803 -21.97697713 7.1393803 -18.0625 2.5 C-13.53550227 -2.78149735 -5.97336078 -2.92572773 0 0 Z M-15.0625 8.5 C-16.36650002 12.33050005 -16.27121714 13.95733544 -14.8125 17.75 C-13.19190334 20.70562722 -13.19190334 20.70562722 -10.0625 22.5 C-6.39518781 22.97834507 -4.53084853 22.74978588 -1.25 21 C1.31357097 18.07020461 1.82267782 16.2752642 2.078125 12.46484375 C1.86575438 9.4975542 0.80558943 7.7683943 -1.0625 5.5 C-6.98972505 1.54851663 -10.8874595 3.01280392 -15.0625 8.5 Z " fill="#FFFFFF" transform="translate(493.0625,542.5)"/>
<path d="M0 0 C1.65 0 3.3 0 5 0 C5.33 6.27 5.66 12.54 6 19 C7.340625 17.35 8.68125 15.7 10.0625 14 C14.32935531 9.20653912 14.32935531 9.20653912 17.15625 8.3359375 C19.0625 8.375 19.0625 8.375 22 9 C20.42219077 12.71045247 18.09296752 15.29906384 15.375 18.25 C14.55773437 19.14203125 13.74046875 20.0340625 12.8984375 20.953125 C12.27195312 21.62859375 11.64546875 22.3040625 11 23 C11.37511719 23.43570313 11.75023437 23.87140625 12.13671875 24.3203125 C13.20380055 25.56210542 14.26878773 26.80570035 15.33203125 28.05078125 C16.38598625 29.28245231 17.44521928 30.50964377 18.51171875 31.73046875 C22 35.77847421 22 35.77847421 22 38 C19.07161008 38.62306169 17.8110399 38.86571881 15 38 C11.62956225 34.96020646 8.80441287 31.5611592 6 28 C5.67 31.3 5.34 34.6 5 38 C3.35 38 1.7 38 0 38 C0 25.46 0 12.92 0 0 Z " fill="#FFFFFF" transform="translate(821,532)"/>
<path d="M0 0 C1.65 0 3.3 0 5 0 C5.33 3.63 5.66 7.26 6 11 C6.99 10.34 7.98 9.68 9 9 C13.25912987 8.38585581 16.97241187 8.56272845 20.9375 10.25 C23.80238086 12.680808 24.88196898 14.71409643 25.22705078 18.47363281 C25.21657715 19.37436523 25.20610352 20.27509766 25.1953125 21.203125 C25.18886719 22.1828125 25.18242187 23.1625 25.17578125 24.171875 C25.15902344 25.18765625 25.14226562 26.2034375 25.125 27.25 C25.11597656 28.28125 25.10695313 29.3125 25.09765625 30.375 C25.07412011 32.91690287 25.04124023 35.4583328 25 38 C23.35 38 21.7 38 20 38 C19.96261719 36.75863281 19.92523438 35.51726563 19.88671875 34.23828125 C19.8210405 32.59632489 19.7545938 30.95439913 19.6875 29.3125 C19.66494141 28.49587891 19.64238281 27.67925781 19.61914062 26.83789062 C19.41169112 22.17970625 19.13563141 18.70913169 16 15 C11.91399472 14.40412423 10.47351075 14.68432616 7 17 C6.11360611 19.65918166 5.82010975 21.48064641 5.68359375 24.23046875 C5.64169922 25.03291016 5.59980469 25.83535156 5.55664062 26.66210938 C5.51732422 27.49548828 5.47800781 28.32886719 5.4375 29.1875 C5.39431641 30.03248047 5.35113281 30.87746094 5.30664062 31.74804688 C5.20068482 33.83184433 5.0998498 35.91590103 5 38 C3.35 38 1.7 38 0 38 C0 25.46 0 12.92 0 0 Z " fill="#FFFFFF" transform="translate(303,532)"/>
<path d="M0 0 C3 0 6 0 9 0 C10.14082031 -0.06960938 10.14082031 -0.06960938 11.3046875 -0.140625 C15.5490925 -0.32123798 18.2330248 -0.43142355 22 1.6875 C26.66475905 7.08112766 26.24975507 12.52294522 26.125 19.3125 C26.11597656 20.24384766 26.10695313 21.17519531 26.09765625 22.13476562 C26.07418263 24.4234436 26.04134729 26.71158672 26 29 C24.02 29 22.04 29 20 29 C19.98541748 28.40985107 19.97083496 27.81970215 19.95581055 27.21166992 C19.88131156 24.53628771 19.78466005 21.86215108 19.6875 19.1875 C19.66494141 18.25873047 19.64238281 17.32996094 19.61914062 16.37304688 C19.5659668 15.0340332 19.5659668 15.0340332 19.51171875 13.66796875 C19.48553467 12.84578857 19.45935059 12.0236084 19.43237305 11.17651367 C18.90454214 8.51947666 18.15661111 7.60449831 16 6 C11.9068337 5.46594461 11.9068337 5.46594461 8.34448242 7.23168945 C6.63148397 9.48468524 6.57782768 10.85621094 6.48828125 13.66796875 C6.45283203 14.56064453 6.41738281 15.45332031 6.38085938 16.37304688 C6.35830078 17.30181641 6.33574219 18.23058594 6.3125 19.1875 C6.27833984 20.12787109 6.24417969 21.06824219 6.20898438 22.03710938 C6.12651782 24.35795393 6.05736597 26.67842148 6 29 C4.02 29 2.04 29 0 29 C0 19.43 0 9.86 0 0 Z " fill="#FFFFFF" transform="translate(723,541)"/>
<path d="M0 0 C1.98 0 3.96 0 6 0 C6 0.66 6 1.32 6 2 C6.56976563 1.67902344 7.13953125 1.35804688 7.7265625 1.02734375 C11.4541069 -0.65709642 14.99564671 -0.69279469 19 0 C22.57236674 1.9270028 24.69560702 4.08682105 26 8 C26.08143855 9.62719482 26.1075302 11.25751719 26.09765625 12.88671875 C26.09443359 13.82451172 26.09121094 14.76230469 26.08789062 15.72851562 C26.07951172 16.70498047 26.07113281 17.68144531 26.0625 18.6875 C26.05798828 19.67556641 26.05347656 20.66363281 26.04882812 21.68164062 C26.03704303 24.12115474 26.02059011 26.56054689 26 29 C24.02 29 22.04 29 20 29 C19.98541748 28.40985107 19.97083496 27.81970215 19.95581055 27.21166992 C19.88131156 24.53628771 19.78466005 21.86215108 19.6875 19.1875 C19.66494141 18.25873047 19.64238281 17.32996094 19.61914062 16.37304688 C19.5659668 15.0340332 19.5659668 15.0340332 19.51171875 13.66796875 C19.48553467 12.84578857 19.45935059 12.0236084 19.43237305 11.17651367 C18.90454214 8.51947666 18.15661111 7.60449831 16 6 C11.9068337 5.46594461 11.9068337 5.46594461 8.34448242 7.23168945 C6.63148397 9.48468524 6.57782768 10.85621094 6.48828125 13.66796875 C6.45283203 14.56064453 6.41738281 15.45332031 6.38085938 16.37304688 C6.35830078 17.30181641 6.33574219 18.23058594 6.3125 19.1875 C6.27833984 20.12787109 6.24417969 21.06824219 6.20898438 22.03710938 C6.12651782 24.35795393 6.05736597 26.67842148 6 29 C4.02 29 2.04 29 0 29 C0 19.43 0 9.86 0 0 Z " fill="#FFFFFF" transform="translate(394,541)"/>
<path d="M0 0 C1.65 0 3.3 0 5 0 C5.33 6.27 5.66 12.54 6 19 C7.340625 17.35 8.68125 15.7 10.0625 14 C14.32935531 9.20653912 14.32935531 9.20653912 17.15625 8.3359375 C19.0625 8.375 19.0625 8.375 22 9 C20.42219077 12.71045247 18.09296752 15.29906384 15.375 18.25 C14.55773437 19.14203125 13.74046875 20.0340625 12.8984375 20.953125 C12.27195312 21.62859375 11.64546875 22.3040625 11 23 C15.1069129 28.71723534 15.1069129 28.71723534 19.875 33.875 C20.57625 34.57625 21.2775 35.2775 22 36 C22 36.66 22 37.32 22 38 C19.07161008 38.62306169 17.8110399 38.86571881 15 38 C11.62956225 34.96020646 8.80441287 31.5611592 6 28 C5.67 31.3 5.34 34.6 5 38 C3.35 38 1.7 38 0 38 C0 25.46 0 12.92 0 0 Z " fill="#FFFFFF" transform="translate(335,532)"/>
<path d="M0 0 C1.98 0 3.96 0 6 0 C6.02505615 0.59014893 6.0501123 1.18029785 6.07592773 1.78833008 C6.19200052 4.46326814 6.31467572 7.1378638 6.4375 9.8125 C6.47681641 10.74126953 6.51613281 11.67003906 6.55664062 12.62695312 C6.59853516 13.51962891 6.64042969 14.41230469 6.68359375 15.33203125 C6.72025146 16.15421143 6.75690918 16.9763916 6.79467773 17.82348633 C6.93427772 20.17905178 6.93427772 20.17905178 8 23 C9.8871875 23.0928125 9.8871875 23.0928125 11.8125 23.1875 C12.52019531 23.22230469 13.22789062 23.25710938 13.95703125 23.29296875 C16.63728912 22.90861055 17.33305152 22.10513105 19 20 C19.50155022 17.7856493 19.50155022 17.7856493 19.51171875 15.33203125 C19.54716797 14.43935547 19.58261719 13.54667969 19.61914062 12.62695312 C19.64169922 11.69818359 19.66425781 10.76941406 19.6875 9.8125 C19.72166016 8.87212891 19.75582031 7.93175781 19.79101562 6.96289062 C19.87348218 4.64204607 19.94263403 2.32157852 20 0 C21.98 0 23.96 0 26 0 C26 9.57 26 19.14 26 29 C23 29 20 29 17 29 C15.96746094 29.05220703 15.96746094 29.05220703 14.9140625 29.10546875 C10.14387323 29.2764141 6.70163653 29.37502154 3 26 C-0.11172298 20.24143795 -0.37930036 15.52961461 -0.1875 9.0625 C-0.17396484 8.18787109 -0.16042969 7.31324219 -0.14648438 6.41210938 C-0.11144109 4.27446914 -0.05764541 2.13715016 0 0 Z " fill="#FFFFFF" transform="translate(846,541)"/>
<path d="M0 0 C1.65 0 3.3 0 5 0 C5.33 0.66 5.66 1.32 6 2 C6.99 1.34 7.98 0.68 9 0 C13.25912987 -0.61414419 16.97241187 -0.43727155 20.9375 1.25 C23.80238086 3.680808 24.88196898 5.71409643 25.22705078 9.47363281 C25.21657715 10.37436523 25.20610352 11.27509766 25.1953125 12.203125 C25.18886719 13.1828125 25.18242188 14.1625 25.17578125 15.171875 C25.15902344 16.18765625 25.14226563 17.2034375 25.125 18.25 C25.11597656 19.28125 25.10695313 20.3125 25.09765625 21.375 C25.07412011 23.91690287 25.04124023 26.4583328 25 29 C23.35 29 21.7 29 20 29 C19.96261719 27.75863281 19.92523437 26.51726563 19.88671875 25.23828125 C19.8210405 23.59632489 19.7545938 21.95439913 19.6875 20.3125 C19.66494141 19.49587891 19.64238281 18.67925781 19.61914062 17.83789062 C19.41204878 13.18773735 19.15508664 9.68461167 16 6 C12.5 5.16666667 12.5 5.16666667 9 6 C5.3173694 10.30069448 5.46143127 14.92118807 5.3125 20.3125 C5.27833984 21.14845703 5.24417969 21.98441406 5.20898438 22.84570312 C5.12694539 24.89667772 5.0617849 26.94831538 5 29 C3.35 29 1.7 29 0 29 C0 19.43 0 9.86 0 0 Z " fill="#FFFFFF" transform="translate(879,541)"/>
<path d="M0 0 C1.65 0 3.3 0 5 0 C5.02187378 0.83192871 5.02187378 0.83192871 5.04418945 1.68066406 C5.11886897 4.20446242 5.21546025 6.72696654 5.3125 9.25 C5.33505859 10.12269531 5.35761719 10.99539063 5.38085938 11.89453125 C5.5823115 16.93322377 5.5823115 16.93322377 7.35546875 21.5859375 C9.02338051 23.28368934 9.02338051 23.28368934 12 23.375 C15.17702205 23.2049729 15.17702205 23.2049729 18 21 C18.88639389 18.34081834 19.17989025 16.51935359 19.31640625 13.76953125 C19.35830078 12.96708984 19.40019531 12.16464844 19.44335938 11.33789062 C19.48267578 10.50451172 19.52199219 9.67113281 19.5625 8.8125 C19.60568359 7.96751953 19.64886719 7.12253906 19.69335938 6.25195312 C19.79931518 4.16815567 19.9001502 2.08409897 20 0 C21.65 0 23.3 0 25 0 C25 9.57 25 19.14 25 29 C23.35 29 21.7 29 20 29 C19.67 28.34 19.34 27.68 19 27 C18.01 27.66 17.02 28.32 16 29 C11.74087013 29.61414419 8.02758813 29.43727155 4.0625 27.75 C1.19761914 25.319192 0.11803102 23.28590357 -0.22705078 19.52636719 C-0.21657715 18.62563477 -0.20610352 17.72490234 -0.1953125 16.796875 C-0.18886719 15.8171875 -0.18242188 14.8375 -0.17578125 13.828125 C-0.15902344 12.81234375 -0.14226563 11.7965625 -0.125 10.75 C-0.11597656 9.71875 -0.10695313 8.6875 -0.09765625 7.625 C-0.07412011 5.08309713 -0.04124023 2.5416672 0 0 Z " fill="#FFFFFF" transform="translate(789,541)"/>
<path d="M0 0 C7.92 0 15.84 0 24 0 C24 1.65 24 3.3 24 5 C21.03 5 18.06 5 15 5 C15 15.23 15 25.46 15 36 C13.02 36 11.04 36 9 36 C9 25.77 9 15.54 9 5 C6.03 5 3.06 5 0 5 C0 3.35 0 1.7 0 0 Z " fill="#FFFFFF" transform="translate(121,534)"/>
<path d="M0 0 C1.98 0 3.96 0 6 0 C6 0.66 6 1.32 6 2 C6.556875 1.67 7.11375 1.34 7.6875 1 C10.30284522 -0.1309601 12.1806646 -0.15662974 15 0 C15 1.98 15 3.96 15 6 C13.865625 6.28875 12.73125 6.5775 11.5625 6.875 C10.386875 7.24625 9.21125 7.6175 8 8 C6.85345518 10.29308963 6.80270883 11.79909656 6.68359375 14.3515625 C6.64169922 15.20234375 6.59980469 16.053125 6.55664062 16.9296875 C6.51732422 17.81914063 6.47800781 18.70859375 6.4375 19.625 C6.37272461 20.97078125 6.37272461 20.97078125 6.30664062 22.34375 C6.20043139 24.56234283 6.09838806 26.7810488 6 29 C4.02 29 2.04 29 0 29 C0 19.43 0 9.86 0 0 Z " fill="#FFFFFF" transform="translate(626,541)"/>
</svg>
