<svg width="18" height="18" viewBox="0 0 18 18" fill="none" xmlns="http://www.w3.org/2000/svg">
<g clip-path="url(#clip0_890_11428)">
<path d="M10.6241 0.416016H0.458755C0.205383 0.416016 0 0.621399 0 0.87477V8.40838C0 8.66176 0.205383 8.86714 0.458755 8.86714H10.4375L9.2298 8.11729C9.1508 8.06821 9.07926 8.01175 9.01503 7.94966H0.917474V1.33349H10.1653V5.7879C10.3063 5.81768 10.4446 5.87192 10.574 5.95233L11.0828 6.26824V0.87477C11.0828 0.621399 10.8774 0.416016 10.6241 0.416016Z" fill="#3A3C47"/>
<path d="M7.62412 4.72223C7.47112 4.60164 7.24918 4.62783 7.12852 4.78087C7.00786 4.9339 7.03409 5.15581 7.18716 5.27647L8.74385 6.50392C8.766 6.45572 8.79096 6.40833 8.81964 6.36209C8.921 6.19886 9.0534 6.06675 9.20425 5.96813L7.62412 4.72223Z" fill="#3A3C47"/>
<path d="M14.7554 4.18175C15.4846 4.18175 16.0758 3.5906 16.0758 2.86138C16.0758 2.13216 15.4846 1.54102 14.7554 1.54102C14.0262 1.54102 13.4351 2.13216 13.4351 2.86138C13.4351 3.5906 14.0262 4.18175 14.7554 4.18175Z" fill="#3A3C47"/>
<path d="M17.9764 6.10364C17.9723 5.27648 17.296 4.60352 16.4688 4.60352H15.8294C15.2025 6.22921 15.4311 5.63644 15.0381 6.65559L15.2037 5.82154C15.2159 5.76023 15.206 5.69656 15.1759 5.64179L14.9164 5.16985L15.1467 4.751C15.1627 4.72196 15.1621 4.6867 15.1453 4.65818C15.1285 4.62967 15.0978 4.6122 15.0647 4.6122H14.4333C14.4002 4.6122 14.3695 4.62967 14.3527 4.65818C14.3358 4.6867 14.3353 4.72199 14.3512 4.751L14.581 5.16897L14.322 5.64006C14.2914 5.69593 14.2817 5.76093 14.295 5.82326L14.4862 6.65559C14.3765 6.37128 13.7451 4.80187 13.6686 4.60352H13.0418C12.2146 4.60352 11.5383 5.27644 11.5341 6.10364C11.5307 6.79147 11.5335 6.2154 11.5281 7.29487L10.2378 6.49377C9.93896 6.30814 9.54616 6.4 9.36057 6.69894C9.17498 6.99787 9.26685 7.39064 9.56575 7.57623L11.8234 8.97802C12.2463 9.24063 12.7941 8.93699 12.7966 8.43998C12.7978 8.19069 12.8068 6.40763 12.8083 6.11C12.8088 6.03645 12.8686 5.97725 12.9421 5.97749C13.0155 5.97774 13.0749 6.03737 13.0749 6.11088C13.0743 9.18083 13.0611 10.0391 13.0611 16.8197C13.0611 17.2419 13.4034 17.5842 13.8256 17.5842C14.2478 17.5842 14.5901 17.2419 14.5901 16.8197V10.7089H14.9202V16.8197C14.9202 17.2419 15.2624 17.5842 15.6847 17.5842C16.1069 17.5842 16.4492 17.2419 16.4492 16.8197L16.4495 6.11067C16.4495 6.04102 16.5058 5.98449 16.5755 5.98428C16.6452 5.98407 16.7019 6.04032 16.7023 6.11003L16.7258 10.7905C16.7275 11.1412 17.0125 11.4243 17.3628 11.4243C17.3639 11.4243 17.365 11.4243 17.3661 11.4243C17.7179 11.4226 18.0017 11.1359 18 10.7841L17.9764 6.10364Z" fill="#3A3C47"/>
</g>
<defs>
<clipPath id="clip0_890_11428">
<rect width="18" height="18" fill="white"/>
</clipPath>
</defs>
</svg>
