<svg width="16" height="4" viewBox="0 0 16 4" fill="none" xmlns="http://www.w3.org/2000/svg">
<path d="M1.33333 0.875C0.6 0.875 0 1.55 0 2.375C0 3.2 0.6 3.875 1.33333 3.875C2.06667 3.875 2.66667 3.2 2.66667 2.375C2.66667 1.55 2.06667 0.875 1.33333 0.875ZM14.6667 0.875C13.9333 0.875 13.3333 1.55 13.3333 2.375C13.3333 3.2 13.9333 3.875 14.6667 3.875C15.4 3.875 16 3.2 16 2.375C16 1.55 15.4 0.875 14.6667 0.875ZM8 0.875C7.26667 0.875 6.66667 1.55 6.66667 2.375C6.66667 3.2 7.26667 3.875 8 3.875C8.73333 3.875 9.33333 3.2 9.33333 2.375C9.33333 1.55 8.73333 0.875 8 0.875Z" fill="#74788D"/>
</svg>
