<?xml version="1.0" encoding="UTF-8" standalone="no"?>
<svg
   xmlns:dc="http://purl.org/dc/elements/1.1/"
   xmlns:cc="http://creativecommons.org/ns#"
   xmlns:rdf="http://www.w3.org/1999/02/22-rdf-syntax-ns#"
   xmlns:svg="http://www.w3.org/2000/svg"
   xmlns="http://www.w3.org/2000/svg"
   height="16"
   width="16"
   id="svg4"
   version="1.1"
   viewBox="0 0 16 16">
  <metadata
     id="metadata10">
    <rdf:RDF>
      <cc:Work
         rdf:about="">
        <dc:format>image/svg+xml</dc:format>
        <dc:type
           rdf:resource="http://purl.org/dc/dcmitype/StillImage" />
        <dc:title></dc:title>
      </cc:Work>
    </rdf:RDF>
  </metadata>
  <defs
     id="defs8" />
  <!--!Font Awesome Free 6.5.2 by @fontawesome - https://fontawesome.com License - https://fontawesome.com/license/free Copyright 2024 Fonticons, Inc.-->
  <path
     style="stroke-width:0.04520416"
     id="path2"
     d="M 10.939395,8.0252828 15.46112,3.4971362 c 0.555617,-0.5564056 0.555617,-1.4566078 0,-2.0130124 L 14.4583,0.47987814 c -0.555618,-0.55640519 -1.454541,-0.55640519 -2.010159,0 L 7.9264167,5.0080263 3.4046907,0.47987814 c -0.5556166,-0.55640519 -1.4545412,-0.55640519 -2.0101578,0 L 0.39171246,1.4886484 c -0.55561662,0.5564046 -0.55561662,1.4566057 0,2.0130114 L 4.9134383,8.0252828 0.39171246,12.553429 c -0.55561662,0.556405 -0.55561662,1.456607 0,2.013013 l 1.00282044,1.004245 c 0.5556166,0.556405 1.4545412,0.556405 2.0101578,0 l 4.521726,-4.528146 4.5217243,4.528146 c 0.555618,0.556405 1.454541,0.556405 2.010159,0 l 1.00282,-1.004245 c 0.555617,-0.556406 0.555617,-1.456608 0,-2.013013 z" />
</svg>
