<svg width="32" height="32" viewBox="0 0 32 32" fill="none" xmlns="http://www.w3.org/2000/svg">
<g clip-path="url(#clip0_831_8287)">
<path fill-rule="evenodd" clip-rule="evenodd" d="M0 16C0 11.7565 1.68571 7.68687 4.68629 4.68629C7.68687 1.68571 11.7565 0 16 0C20.2435 0 24.3131 1.68571 27.3137 4.68629C30.3143 7.68687 32 11.7565 32 16C32 20.2435 30.3143 24.3131 27.3137 27.3137C24.3131 30.3143 20.2435 32 16 32C11.7565 32 7.68687 30.3143 4.68629 27.3137C1.68571 24.3131 0 20.2435 0 16ZM15 2.154C13.66 2.562 12.33 3.794 11.226 5.864C10.94 6.4 10.674 6.984 10.436 7.608C11.846 7.922 13.38 8.122 15 8.182V2.154ZM8.498 7.078C7.67524 6.81365 6.87418 6.48601 6.102 6.098C7.40486 4.79543 8.95167 3.76241 10.654 3.058C10.2053 3.64534 9.80591 4.2688 9.46 4.922C9.09233 5.61917 8.77162 6.3401 8.5 7.08L8.498 7.078ZM7.018 15H2.034C2.22023 12.3395 3.16638 9.78848 4.76 7.65C5.7 8.166 6.75 8.614 7.89 8.984C7.37143 10.9497 7.07822 12.968 7.016 15H7.018ZM9.818 9.518C11.434 9.892 13.18 10.12 15 10.182V15H9.02C9.09 13.026 9.372 11.172 9.818 9.518ZM17 10.18V15H22.98C22.9205 13.1485 22.6529 11.3096 22.182 9.518C20.566 9.892 18.82 10.12 17 10.182V10.18ZM9.02 17H15V21.818C13.18 21.878 11.434 22.108 9.818 22.482C9.34648 20.6905 9.07813 18.8516 9.018 17H9.02ZM17 17V21.818C18.82 21.878 20.566 22.108 22.182 22.482C22.628 20.828 22.91 18.974 22.982 17H17ZM10.436 24.392C11.9368 24.0629 13.4644 23.8715 15 23.82V29.848C13.66 29.44 12.33 28.208 11.226 26.138C10.9271 25.5734 10.6633 24.991 10.436 24.394V24.392ZM10.656 28.944C10.2065 28.3561 9.80642 27.732 9.46 27.078C9.09164 26.3809 8.77026 25.66 8.498 24.92C7.67526 25.1844 6.87421 25.5121 6.102 25.9C7.4045 27.204 8.95133 28.2384 10.654 28.944H10.656ZM7.89 23.016C6.80723 23.3618 5.7593 23.8084 4.76 24.35C3.16699 22.2113 2.22153 19.6603 2.036 17H7.016C7.07752 19.0321 7.37075 21.0504 7.89 23.016ZM21.346 28.944C23.0478 28.2388 24.5939 27.2051 25.896 25.902C25.1245 25.5141 24.3241 25.1865 23.502 24.922C23.2297 25.6613 22.9083 26.3815 22.54 27.078C22.1943 27.7319 21.7949 28.3561 21.346 28.944ZM17 23.818C18.62 23.878 20.154 24.078 21.564 24.392C21.324 25.016 21.06 25.6 20.774 26.136C19.67 28.206 18.338 29.436 17 29.846V23.82V23.818ZM24.11 23.016C25.25 23.386 26.3 23.834 27.24 24.35C28.833 22.2113 29.7785 19.6603 29.964 17H24.984C24.9225 19.0321 24.6292 21.0504 24.11 23.016ZM29.964 15H24.984C24.9225 12.9679 24.6292 10.9496 24.11 8.984C25.1926 8.63779 26.2405 8.19119 27.24 7.65C28.833 9.78865 29.7785 12.3397 29.964 15ZM22.54 4.922C22.894 5.59 23.218 6.31 23.504 7.078C24.3254 6.81349 25.1251 6.48585 25.896 6.098C24.5937 4.79565 23.0476 3.76264 21.346 3.058C21.782 3.624 22.182 4.252 22.54 4.922ZM21.564 7.608C20.154 7.922 18.618 8.122 17 8.182V2.154C18.34 2.562 19.67 3.794 20.774 5.864C21.06 6.4 21.326 6.984 21.564 7.608Z" fill="#281B93"/>
</g>
<defs>
<clipPath id="clip0_831_8287">
<rect width="32" height="32" fill="white"/>
</clipPath>
</defs>
</svg>
