<svg width="20" height="20" viewBox="0 0 20 20" fill="none" xmlns="http://www.w3.org/2000/svg">
<path d="M5.89444 8.1775L4.17944 9.8925C3.47612 10.5958 3.08099 11.5497 3.08099 12.5444C3.08099 13.539 3.47612 14.4929 4.17944 15.1962C4.88276 15.8996 5.83667 16.2947 6.83131 16.2947C7.82596 16.2947 8.77987 15.8996 9.48319 15.1962L11.7682 12.91C12.1923 12.4858 12.5085 11.9661 12.6902 11.3944C12.8719 10.8228 12.9138 10.2159 12.8124 9.62467C12.711 9.03346 12.4693 8.47521 12.1075 7.99676C11.7457 7.51831 11.2744 7.13362 10.7332 6.875L10.0007 7.6075C9.92631 7.68199 9.86163 7.76557 9.80819 7.85625C10.2263 7.97646 10.6059 8.20372 10.9093 8.51557C11.2127 8.82742 11.4295 9.21305 11.5382 9.63435C11.6469 10.0556 11.6438 10.498 11.5291 10.9177C11.4144 11.3375 11.1922 11.72 10.8844 12.0275L8.60069 14.3125C8.13159 14.7816 7.49535 15.0451 6.83194 15.0451C6.16853 15.0451 5.53229 14.7816 5.06319 14.3125C4.59408 13.8434 4.33055 13.2072 4.33055 12.5437C4.33055 11.8803 4.59408 11.2441 5.06319 10.775L6.05444 9.785C5.91458 9.26091 5.86055 8.71762 5.89444 8.17625V8.1775Z" fill="black"/>
<path d="M8.23195 5.83999C7.80783 6.26416 7.49166 6.7839 7.30996 7.35555C7.12827 7.92721 7.08636 8.53411 7.18775 9.12532C7.28914 9.71652 7.53088 10.2748 7.89266 10.7532C8.25445 11.2317 8.72573 11.6164 9.26695 11.875L10.2357 10.905C9.81188 10.7913 9.42546 10.5681 9.11524 10.2577C8.80503 9.9474 8.58197 9.56088 8.46846 9.13701C8.35496 8.71315 8.35502 8.26688 8.46863 7.84305C8.58224 7.41921 8.80541 7.03275 9.1157 6.72249L11.3994 4.43749C11.8686 3.96838 12.5048 3.70485 13.1682 3.70485C13.8316 3.70485 14.4678 3.96838 14.9369 4.43749C15.4061 4.90659 15.6696 5.54283 15.6696 6.20624C15.6696 6.86965 15.4061 7.50588 14.9369 7.97499L13.9457 8.96499C14.0857 9.48999 14.1394 10.0337 14.1057 10.5737L15.8207 8.85874C16.524 8.15541 16.9191 7.20151 16.9191 6.20686C16.9191 5.21221 16.524 4.25831 15.8207 3.55499C15.1174 2.85166 14.1635 2.45654 13.1688 2.45654C12.1742 2.45654 11.2203 2.85166 10.5169 3.55499L8.23195 5.83999Z" fill="black"/>
</svg>
